<svg xmlns="http://www.w3.org/2000/svg" viewBox="0 0 540 388">
	<g id="nrpt-curve" fill="#ffffff">
		<path d="M284.4,15.57a374.388,374.388,0,0,1,78.65-4.14c35.09,2.1,70.39,9.46,101.8,25.67,22.61,11.76,43.34,28.88,55.23,51.8,10.77,20.31,13.14,44.59,7.69,66.82-4.27,18.16-13.18,34.91-24.12,49.9-20.19,27.13-47.01,48.87-76.17,65.7,13.99-11.55,27.46-23.89,38.71-38.19,14.83-18.56,26.64-40.07,31.17-63.57a97.441,97.441,0,0,0-7.25-60.84c-11.46-24.54-33.03-42.93-56.76-55.15C400.3,36.72,362.92,30.04,326.08,29.28c-48.41-.63-96.77,9.11-141.65,27.09C140.25,74.25,98.9,100.9,67.99,137.55c17.71-27.88,43.17-50.03,70.66-67.93C182.61,41.39,232.94,23.78,284.4,15.57Z"></path>
	</g>
	<g id="nrpt-text" fill="#ffffff">
		<path d="M359.75,136.25c7.86.01,15.73-.02,23.59,0,1.48,6.77,3.18,13.49,4.69,20.25h29.22v25.25c-8.58.02-17.16-.02-25.75.01q0,29.145,0,58.29c.05,5.48,1.53,11.77,6.59,14.76,5.86,3.26,12.79,1.5,19.16,1.94v25.5c-8.76-.02-17.52.03-26.28-.01-7.56-.14-15.65-1.54-21.52-6.69-7.04-5.97-9.52-15.61-9.7-24.5Q359.75,193.645,359.75,136.25Z"></path>
		<path d="M20,156.5q12.42,0,24.83,0c1.19,5.28,2.56,10.52,3.86,15.78,13.25-9.27,28.92-15.88,45.3-15.81,11.35-.18,23.6,2.35,31.95,10.58,8.64,8.54,11.5,21.16,11.8,32.93q.015,41.13.01,82.27H106V203c-.06-6.02-1.48-12.71-6.43-16.65-5.65-4.29-13.29-4.67-20.04-3.56-10.59,1.84-19.76,8.14-27.53,15.28q0,42.09,0,84.18H20Z"></path>
		<path d="M156,156.5h24.65c1.26,5.25,2.51,10.51,3.83,15.75,9.26-9.08,21.48-15.92,34.75-15.87.04,8.58.01,17.16.02,25.74-12.33.17-23.63,6.81-31.51,16.01q.03,42.06.01,84.12-15.885.015-31.75,0Z"></path>
		<path d="M226.49,161.55a274.807,274.807,0,0,1,63.36-4.87c16.6.9,34.41,5.63,45.61,18.74,11.43,13.26,13.4,31.77,12.38,48.59-.91,16-5.31,33.1-17.54,44.28-10.74,10.09-25.9,13.5-40.23,13.9a75.88,75.88,0,0,1-31.83-5.92q.03,25.62.01,51.23H226.5q-.015-82.98-.01-165.95m31.76,22.37v65.29A65.508,65.508,0,0,0,291,255.45c7.15-.56,14.23-4.01,18.35-10,5.62-7.95,6.95-18.02,7.17-27.51.25-9.11-1.15-18.99-7.32-26.1-5.96-6.88-15.4-9.29-24.16-9.56A156.9,156.9,0,0,0,258.25,183.92Z"></path>
		<path d="M20.33,327.47c.07-9.35-.1-18.71.09-28.06,1.41.53,3.35.31,4.28,1.75,5.43,6.89,10.66,13.93,16.05,20.86.07-7.41.02-14.83.03-22.24h3.44q-.015,13.83,0,27.65l-3.6.04c-5.76-7.42-11.39-14.93-17.17-22.34q-.03,11.145,0,22.31C22.67,327.45,21.11,327.46,20.33,327.47Z"></path>
		<path d="M47.59,327.44c3.92-9.22,7.8-18.48,11.78-27.68l3.81.04c3.95,9.29,8,18.53,11.82,27.88-.87-.11-2.61-.32-3.48-.42-1.65-2.69-2.6-5.74-3.86-8.61-3.09.01-6.18.01-9.27.02.38-.97.75-1.94,1.12-2.91q3.405.015,6.81.04c-1.77-4.17-3.47-8.37-5.21-12.55-3.27,8.08-6.63,16.13-9.95,24.19Z"></path>
		<path d="M73.29,302.68c.02-.97.04-1.94.07-2.91,6.82.01,13.64.03,20.47-.01.2.96.4,1.91.59,2.88-2.99.03-5.99.02-8.98.01.02,8.26-.01,16.52.01,24.79-.83.01-2.51.03-3.34.05.02-8.28-.03-16.56.02-24.83C79.19,302.66,76.24,302.66,73.29,302.68Z"></path>
		<path d="M97.33,327.46c.02-9.23-.01-18.46.01-27.69.83,0,2.5,0,3.33.01q-.015,13.83,0,27.68Z"></path>
		<path d="M113.42,300.54a19.367,19.367,0,0,1,13.44.44c4.2,1.84,6.23,6.58,6.37,10.94.29,4.59-.46,9.91-4.21,13.03-4.67,3.39-11.17,3.39-16.42,1.45-4.9-1.89-7-7.46-6.86-12.37-.43-5.47,2.08-11.74,7.68-13.49m.86,2.94c-3.22,1.46-4.68,5.13-4.83,8.47-.2,3.45.08,7.37,2.53,10.05,2.83,3.12,7.57,3.26,11.4,2.35,3.71-.95,6-4.77,6.13-8.44.29-3.95.15-8.6-3.05-11.41C123.09,301.81,118.08,301.82,114.28,303.48Z"></path>
		<path d="M138.33,299.81c.79-.03,2.39-.07,3.18-.09,5.89,7.32,11.47,14.88,17.24,22.3.07-7.42.02-14.83.03-22.24h3.44v27.65c-.9.01-2.7.02-3.6.03-5.76-7.42-11.4-14.92-17.16-22.33-.03,7.43-.02,14.87-.01,22.31-.78.01-2.34.02-3.12.03Q138.345,313.64,138.33,299.81Z"></path>
		<path d="M165.58,327.45c3.95-9.22,7.79-18.5,11.79-27.7.95.01,2.86.04,3.81.05,3.95,9.29,8,18.54,11.82,27.88-.87-.11-2.61-.32-3.48-.42-1.65-2.7-2.61-5.74-3.88-8.62-3.09.03-6.17.02-9.26.03.38-.97.75-1.94,1.13-2.91q3.405.015,6.82.04c-1.8-4.23-3.56-8.46-5.24-12.73-3.1,8.21-6.65,16.24-9.93,24.37C168.26,327.44,166.47,327.45,165.58,327.45Z"></path>
		<path d="M196.78,299.78h3.44c-.01,8.26.01,16.52-.01,24.78,4.82-.01,9.65.01,14.47-.02-.01.97-.01,1.94-.01,2.92-5.97-.03-11.93-.01-17.89-.01Q196.8,313.605,196.78,299.78Z"></path>
		<path d="M276.32,327.46q.045-13.845.01-27.68c5.14.26,10.4-.62,15.45.57,4.04.95,5.15,6.29,3.11,9.49-1.42,2.49-4.34,3.44-6.73,4.69,3.18,4.29,6.27,8.64,9.45,12.93-1.54-.02-3.08-.02-4.61-.02-2.87-4.89-7.57-8.87-9.01-14.48,2.57-.82,5.61-1.27,7.35-3.56,1.26-1.77.53-3.94.26-5.88-3.86-1.28-7.96-.79-11.95-.87.03,8.27-.01,16.54.03,24.81Z"></path>
		<path d="M301.33,327.46q.015-13.845.01-27.69c5.95.02,11.91.01,17.87.01.01.72.02,2.16.03,2.88-4.87-.01-9.73.02-14.59-.01q.03,4.74.01,9.49c4.68-.05,9.36-.01,14.04-.05.01.71.01,2.11.01,2.82-4.68-.04-9.37,0-14.05-.05.01,3.23.01,6.47-.01,9.7,4.93-.01,9.87,0,14.81-.01-.01.73-.01,2.18-.01,2.9C313.41,327.44,307.37,327.43,301.33,327.46Z"></path>
		<path d="M329.58,301.54c4.43-2.27,9.72-2.42,14.51-1.34,2.1-.13,2.18,1.81,2.5,3.39-5.13-1.26-11.23-2.29-15.79,1.1-4.41,3.91-4.21,11.22-1.49,16.06,2.81,4.5,8.82,4.28,13.45,3.81q.03-4.725.01-9.44c.86,0,2.6-.01,3.46-.01-.02,3.8-.01,7.6-.01,11.4-5.42,1.57-11.55,1.75-16.6-1.03-4.28-2.52-5.79-7.8-5.55-12.49C323.87,308.58,325.57,303.8,329.58,301.54Z"></path>
		<path d="M352.11,299.76c.84,0,2.5.02,3.33.02.01,9.22-.01,18.43.01,27.65-.83.02-2.51.04-3.34.06Q352.125,313.615,352.11,299.76Z"></path>
		<path d="M363.95,300.97c5.19-2.36,11.04-1.3,16.43-.29.05,1.04.12,2.09.18,3.15-4.83-1.17-10.38-2.6-15.01-.13-2.71,1.71-1.86,5.13-.86,7.6,4.18,1.18,8.6.34,12.78,1.4,4.36,1.52,5.27,7.28,3.26,10.97-1.74,2.99-5.48,3.83-8.68,3.96a28.655,28.655,0,0,1-10.18-1.22c-.17-.75-.52-2.25-.7-2.99,4.58,1.03,9.48,2.14,14.12.8,3.37-1.26,4.11-6.63,1-8.56-3.74-1.44-7.87-.2-11.68-1.23C358.95,312.63,358.75,303.47,363.95,300.97Z"></path>
		<path d="M383.75,302.67c.01-.97.03-1.93.04-2.89,6.95,0,13.9.01,20.85-.01.02.97.04,1.94.08,2.91-2.96-.02-5.91-.02-8.85-.02.04,8.27,0,16.55.02,24.83-.83-.02-2.51-.04-3.34-.06.02-8.26-.01-16.52.01-24.78C389.62,302.67,386.69,302.66,383.75,302.67Z"></path>
		<path d="M408.11,299.77q8.88.03,17.76,0c.01.73.04,2.19.06,2.93-4.83-.07-9.66-.02-14.49-.05v9.49c4.68-.05,9.36-.02,14.04-.03v2.78c-4.69-.02-9.36.02-14.04-.03.01,3.23,0,6.47,0,9.7,4.92-.01,9.86,0,14.79-.01,0,.73-.01,2.17-.01,2.89-6.04.01-12.08-.02-18.12.03C408.13,318.24,408.11,309,408.11,299.77Z"></path>
		<path d="M431.78,299.78c5.03.21,10.15-.51,15.12.46,3.88.58,5.54,5.45,3.92,8.71-1.23,3.03-4.45,4.33-7.24,5.5,3.23,4.3,6.32,8.7,9.55,13.01-1.14-.01-3.43-.01-4.57-.02-3.1-4.77-7.36-8.95-9.16-14.44,2.72-.88,6.02-1.38,7.69-4,1.06-2.13.73-5.55-2.01-6.16-3.28-.37-6.58-.13-9.87-.18.02,8.26,0,16.52.01,24.79-1.15-.01-2.3-.01-3.44,0Q431.8,313.605,431.78,299.78Z"></path>
		<path d="M26.45,344.7a19.386,19.386,0,0,1,13.69.19c4.69,1.89,6.77,7.31,6.57,12.07.3,4.89-1.15,10.67-5.86,13.06a18.654,18.654,0,0,1-15.75-.1c-4.62-2.47-6.16-8.09-5.8-12.99-.25-4.99,2.21-10.45,7.15-12.23m1.01,2.97c-3.4,1.69-4.47,5.74-4.59,9.24-.08,3.68.65,7.98,3.89,10.25,3.24,2.13,7.58,2.08,11.13.84,3.95-1.54,5.26-6.13,5.26-9.99.11-3.89-.84-8.63-4.68-10.52A12.865,12.865,0,0,0,27.46,347.67Z"></path>
		<path d="M51.78,343.78c5.95,0,11.9.01,17.86-.01.02.96.05,1.93.08,2.91-4.84-.03-9.67,0-14.51-.02q.015,4.725.01,9.47c4.67-.03,9.34-.02,14.01-.02,0,.7.01,2.08.01,2.78-4.68-.01-9.35,0-14.02-.02,0,4.19-.01,8.38,0,12.57-1.15,0-2.3,0-3.44.01Z"></path>
		<path d="M84.78,343.78c5.28.28,10.72-.69,15.89.7,4.06,1.23,4.64,6.75,2.65,9.95-2.04,3.54-6.38,4.39-9.99,5.4-.08-.76-.23-2.27-.31-3.02,2.33-.74,4.99-1.22,6.61-3.21,1.67-2.03,1.42-6.05-1.52-6.77-3.29-.36-6.6-.12-9.9-.17.03,8.26-.01,16.52.01,24.79-1.15-.01-2.3-.01-3.45-.01Q84.8,357.61,84.78,343.78Z"></path>
		<path d="M109.11,343.77c5.92.02,11.84.03,17.76-.01.02.73.05,2.2.07,2.93-4.84-.05-9.67-.01-14.51-.04.02,3.16.01,6.32.01,9.48,4.68-.04,9.36-.01,14.03-.03,0,.7.01,2.1.01,2.79-4.68-.02-9.36.01-14.04-.02,0,3.23.01,6.46,0,9.69,4.93-.01,9.86,0,14.8-.01-.01.73-.02,2.17-.02,2.9-6.04,0-12.08-.03-18.12.02C109.13,362.23,109.11,353,109.11,343.77Z"></path>
		<path d="M132.78,343.78c4.99.2,10.06-.48,14.99.43,3.96.53,5.71,5.43,4.05,8.75-1.22,3.01-4.46,4.28-7.17,5.57,3.2,4.28,6.26,8.66,9.49,12.93-1.14-.01-3.43-.01-4.58-.01-3.09-4.77-7.37-8.95-9.15-14.45,2.53-.85,5.54-1.26,7.3-3.5,1.58-2.04,1.3-5.97-1.61-6.67-3.28-.36-6.59-.12-9.89-.17.02,8.26,0,16.52.01,24.79-1.15-.01-2.3-.01-3.45-.01C132.8,362.22,132.78,353,132.78,343.78Z"></path>
		<path d="M160.78,344.69c5.08-1.99,10.64-.99,15.83-.02.05,1.05.12,2.11.18,3.17-4.37-1.2-9.07-2.1-13.54-.9-3.59.93-4.67,6.32-1.51,8.36,4.32,1.88,9.6-.48,13.65,2.31,4.05,3.2,3.33,11.14-1.79,12.92-4.94,1.83-10.56,1.32-15.53-.13-.15-.76-.45-2.27-.6-3.02,4.49,1.1,9.28,2.13,13.85.9,3.59-1.06,4.42-6.77,1.13-8.65-3.82-1.42-8.04-.12-11.91-1.29C154.93,356.15,155.17,346.74,160.78,344.69Z"></path>
		<path d="M190.28,344.35a18.871,18.871,0,0,1,13.43.93c4.56,2.36,6.03,7.97,5.78,12.74.21,5.21-2.21,11.19-7.62,12.75-5.3,1.55-11.88,1.42-16.18-2.44-3.87-3.63-3.9-9.36-3.43-14.25a11.145,11.145,0,0,1,8.02-9.73m.89,2.82c-5.94,2.41-6.38,10.26-4.79,15.57,2.35,8.3,16.73,8.29,18.89-.15.84-4.34,1.17-9.49-1.7-13.19C200.59,345.91,195.21,345.8,191.17,347.17Z"></path>
		<path d="M214.78,343.79c.85-.01,2.55-.02,3.4-.03,5.7,7.55,11.6,14.94,17.17,22.58-.04-7.53-.01-15.05-.01-22.58.83.01,2.5.01,3.33.02q-.015,13.845,0,27.7c-.91-.02-2.73-.04-3.64-.05-5.67-7.57-11.54-14.99-17.18-22.58.08,7.55.01,15.1.04,22.65-1.04-.03-2.08-.06-3.12-.08C214.79,362.21,214.77,353,214.78,343.79Z"></path>
		<path d="M242.06,371.64c3.81-9.32,7.87-18.55,11.75-27.84.95-.01,2.86-.03,3.81-.05,4.06,9.2,7.88,18.5,11.9,27.72l-3.67-.04c-1.23-2.93-2.49-5.85-3.71-8.78-3.09.01-6.18.01-9.27.03.4-.98.8-1.95,1.2-2.93q3.36.03,6.72.05c-1.69-4.15-3.35-8.33-5.27-12.38-3.34,7.95-6.28,16.11-10.04,23.86Z"></path>
		<path d="M273.11,343.76c.83.01,2.5.01,3.34.02-.01,8.26.01,16.52-.02,24.79,4.82-.03,9.65.01,14.47-.04v2.94c-5.94-.04-11.87-.05-17.8,0Q273.13,357.625,273.11,343.76Z"></path>
		<path d="M302.52,346.67c.01-.97.03-1.93.05-2.9q10.425.015,20.85,0c.02.97.04,1.93.06,2.9-2.94-.01-5.89-.01-8.83-.02.04,8.27,0,16.54.03,24.81h-3.35c.02-8.27-.02-16.54.02-24.81C308.4,346.66,305.46,346.66,302.52,346.67Z"></path>
		<path d="M326.55,343.78c5.12.24,10.35-.57,15.39.55,3.64.76,5.14,5.31,3.72,8.48-1.17,3.14-4.56,4.38-7.31,5.76,3.3,4.21,6.3,8.64,9.54,12.9-1.58-.03-3.14-.05-4.7-.07-2.95-4.83-7.26-8.9-9.04-14.37,2.54-.87,5.56-1.29,7.32-3.53,1.62-2.02,1.35-6.07-1.64-6.62-3.3-.47-6.65-.15-9.96-.22.05,8.28,0,16.55.03,24.82l-3.35-.04C326.57,362.22,326.55,353,326.55,343.78Z"></path>
		<path d="M349.06,371.44q5.925-13.815,11.76-27.65c1.27-.01,2.55-.02,3.84-.02,4.01,9.21,7.86,18.49,11.86,27.7l-3.67-.04c-1.23-2.93-2.49-5.85-3.71-8.77-3.09,0-6.19,0-9.28.02.4-.98.81-1.95,1.23-2.92l6.7.03c-1.7-4.14-3.35-8.32-5.28-12.37-3.2,8.05-6.57,16.03-9.88,24.04C351.74,371.45,349.96,371.45,349.06,371.44Z"></path>
		<path d="M380.33,343.77c.84,0,2.5-.01,3.33-.01.01,9.23-.01,18.47.02,27.7h-3.36Q380.35,357.615,380.33,343.77Z"></path>
		<path d="M389.6,343.46c1.38.52,3.35.14,4.28,1.55q8.145,10.605,16.25,21.23c-.04-7.49-.01-14.99-.02-22.49l3.34.04q-.015,13.83,0,27.66c-.91,0-2.72-.01-3.63-.01q-8.55-11.2-17.14-22.38c-.04,7.47-.01,14.94-.01,22.41l-3.12-.04C389.59,362.11,389.5,352.79,389.6,343.46Z"></path>
		<path d="M419.56,343.77c5.95.02,11.9.01,17.86.01.02.72.05,2.17.07,2.89-4.88-.01-9.75,0-14.63-.02.03,3.16.03,6.31.01,9.47,4.69-.02,9.38.02,14.07-.04,0,.71-.01,2.13-.01,2.85-4.68-.07-9.37-.03-14.05-.05q.015,4.83-.01,9.68c4.93-.01,9.87.01,14.81-.02-.01.97-.02,1.94-.01,2.92-6.04-.03-12.08-.02-18.12-.01Q419.565,357.605,419.56,343.77Z"></path>
		<path d="M443.33,343.77c5.14.28,10.41-.61,15.46.59,4.04.96,5.14,6.28,3.1,9.48-1.42,2.49-4.34,3.44-6.73,4.69,3.17,4.29,6.27,8.64,9.45,12.92-1.54-.01-3.08-.01-4.6-.01-2.89-4.88-7.57-8.86-9.01-14.47,2.56-.83,5.6-1.28,7.34-3.57,1.27-1.77.53-3.94.26-5.88-3.87-1.27-7.96-.79-11.95-.87.04,8.27-.01,16.54.03,24.81h-3.35Q443.345,357.615,443.33,343.77Z"></path>
		<path d="M470.96,344.96c5.18-2.35,11.04-1.29,16.42-.28q.075,1.56.18,3.15c-4.62-1.17-9.73-2.35-14.33-.54-3.11,1.32-3.63,6.39-.61,8.07,3.97,1.58,8.51-.1,12.47,1.61,5.46,2.67,4.65,12.14-1.25,13.79a26.141,26.141,0,0,1-14.97-.35c-.17-.75-.52-2.25-.69-3,4.56,1.04,9.43,2.15,14.06.83,3.42-1.22,4.17-6.67,1.03-8.58-3.73-1.42-7.84-.21-11.64-1.22C465.96,356.64,465.74,347.46,470.96,344.96Z"></path>
	</g>
</svg>