<svg xmlns="http://www.w3.org/2000/svg" viewBox="0 0 1850 730">
  <g>
    <rect y="480" width="1850" height="250" fill="#b99f6e"/>
    <g style="isolation: isolate">
      <g style="isolation: isolate">
        <path d="M981.416,637.209q.175,4.373,2.373,6.273t7.515,1.9a17.947,17.947,0,0,0,4.262-.615,18.9,18.9,0,0,0,3.428-1.1h1.67v11.562q-2.461.569-5.34,1.007a64.125,64.125,0,0,1-8.81.439,28.923,28.923,0,0,1-9.119-1.3,17.8,17.8,0,0,1-6.482-3.67,14.9,14.9,0,0,1-3.823-5.493,22.039,22.039,0,0,1-1.494-7.031q-14.678-.836-22.873-9.822t-8.2-24.06q0-15.777,8.965-24.94t24.741-9.162q15.734,0,24.742,9.162t9.008,24.94q0,11.644-5.273,20.105A27.694,27.694,0,0,1,981.416,637.209Zm-1.8-15.337a19.563,19.563,0,0,0,3.648-7.054,34.281,34.281,0,0,0,1.186-9.557,32.239,32.239,0,0,0-1.362-10.02,19.432,19.432,0,0,0-3.56-6.679,13.327,13.327,0,0,0-5.163-3.824,16.381,16.381,0,0,0-12.129-.044,14.15,14.15,0,0,0-5.208,3.78,18.578,18.578,0,0,0-3.581,6.79,32.965,32.965,0,0,0-1.384,10.041,32.35,32.35,0,0,0,1.339,9.953,19.723,19.723,0,0,0,3.538,6.7,13.53,13.53,0,0,0,5.142,3.823,15.893,15.893,0,0,0,6.2,1.231,15.688,15.688,0,0,0,6.2-1.252A13.573,13.573,0,0,0,979.614,621.872Z" fill="#fff"/>
        <path d="M1084.133,614.313q0,12.129-7.383,18.589T1055,639.362q-14.37,0-21.731-6.46t-7.361-18.545V572.565h16.963v40.826q0,6.812,2.856,10.151t9.273,3.34q6.329,0,9.25-3.208t2.922-10.283V572.565h16.963Z" fill="#fff"/>
        <path d="M1172.348,638h-17.427l-4.558-13.228h-24.215L1121.59,638h-17.006l24.17-65.435h19.424Zm-26.041-25.225-8.051-23.442-8.051,23.442Z" fill="#fff"/>
        <path d="M1240.92,638h-47.2V572.565H1210.6v52.779h30.322Z" fill="#fff"/>
        <path d="M1298.417,638H1260.1V626.4h10.722V584.167H1260.1v-11.6h38.32v11.6h-10.723V626.4h10.723Z" fill="#fff"/>
        <path d="M1371.031,585.222h-30.1V597.4h27.9v12.656h-27.9V638h-16.787V572.565h46.888Z" fill="#fff"/>
        <path d="M1430.023,638H1391.7V626.4h10.723V584.167H1391.7v-11.6h38.32v11.6H1419.3V626.4h10.722Z" fill="#fff"/>
        <path d="M1503.077,638h-47.329V572.565h47.329v12.657h-30.542v11.294h28.345v12.656h-28.345v16.172h30.542Z" fill="#fff"/>
        <path d="M1591.028,605.349a32.139,32.139,0,0,1-4.174,16.37,30.447,30.447,0,0,1-10.547,11.095,32.352,32.352,0,0,1-10.5,4.043A69.877,69.877,0,0,1,1552.269,638H1529.2V572.565h23.731a62.032,62.032,0,0,1,13.8,1.341,32.056,32.056,0,0,1,9.755,3.8,29.7,29.7,0,0,1,10.657,11.141A33.475,33.475,0,0,1,1591.028,605.349Zm-17.446-.132a24,24,0,0,0-2.352-11.053,16.41,16.41,0,0,0-7.448-7.185,19.337,19.337,0,0,0-5.3-1.735,52.618,52.618,0,0,0-8.151-.462h-4.263v40.957h4.263a50.621,50.621,0,0,0,8.833-.55,19.224,19.224,0,0,0,5.493-2,16.248,16.248,0,0,0,6.768-7.053A24.821,24.821,0,0,0,1573.582,605.217Z" fill="#fff"/>
      </g>
    </g>
    <g style="isolation: isolate">
      <g style="isolation: isolate">
        <path d="M352.358,593.22a24.768,24.768,0,0,1-1.538,8.591,19.114,19.114,0,0,1-4.394,7.053,26.871,26.871,0,0,1-8.723,5.845,31.649,31.649,0,0,1-11.975,1.978h-10.5V638H298.35V572.565h27.773a43.876,43.876,0,0,1,10.525,1.078,24.794,24.794,0,0,1,7.581,3.229,17.384,17.384,0,0,1,6.042,6.636A20.945,20.945,0,0,1,352.358,593.22Zm-17.446.376a7.713,7.713,0,0,0-1.494-4.758,8.1,8.1,0,0,0-3.472-2.784,15.679,15.679,0,0,0-5.141-1.161q-2.505-.111-6.68-.111h-2.9v19.556h4.834a39.406,39.406,0,0,0,7.1-.526,10.056,10.056,0,0,0,4.68-2.105,8.114,8.114,0,0,0,2.351-3.353A13.733,13.733,0,0,0,334.912,593.6Z"/>
        <path d="M439.3,638H418.688l-17.8-23.994h-7.818V638H376.282V572.565h28.3a64.939,64.939,0,0,1,9.975.66,21.523,21.523,0,0,1,7.822,2.856,17.071,17.071,0,0,1,5.867,5.69,16.32,16.32,0,0,1,2.175,8.768q0,7.251-3.361,11.821a25.382,25.382,0,0,1-9.6,7.6Zm-26.323-45.4a8.325,8.325,0,0,0-1.011-4.218,6.777,6.777,0,0,0-3.471-2.769,12.789,12.789,0,0,0-4-.857q-2.286-.153-5.318-.154h-6.108v17.623h5.185a48.272,48.272,0,0,0,6.768-.4,9.693,9.693,0,0,0,4.57-1.8,8.762,8.762,0,0,0,2.571-3.01A10.076,10.076,0,0,0,412.976,592.6Z"/>
        <path d="M505.981,638H458.652V572.565h47.329v12.657H475.439v11.294h28.345v12.656H475.439v16.172h30.542Z"/>
        <path d="M600.7,638H583.913V594.187l-12.129,28.432H560.139L548.01,594.187V638H532.1V572.565h19.6l14.722,32.828L581.1,572.565h19.6Z"/>
        <path d="M664.745,638h-38.32V626.4h10.722V584.167H626.425v-11.6h38.32v11.6H654.022V626.4h10.723Z"/>
        <path d="M737.8,638H690.47V572.565H737.8v12.657H707.257v11.294H735.6v12.656H707.257v16.172H737.8Z"/>
        <path d="M826.937,638H806.326l-17.8-23.994h-7.818V638H763.919V572.565h28.3a64.953,64.953,0,0,1,9.976.66,21.523,21.523,0,0,1,7.822,2.856,17.071,17.071,0,0,1,5.867,5.69,16.32,16.32,0,0,1,2.175,8.768q0,7.251-3.362,11.821a25.37,25.37,0,0,1-9.6,7.6Zm-26.323-45.4a8.325,8.325,0,0,0-1.011-4.218,6.776,6.776,0,0,0-3.472-2.769,12.783,12.783,0,0,0-4-.857q-2.284-.153-5.317-.154h-6.108v17.623h5.185a48.282,48.282,0,0,0,6.768-.4,9.693,9.693,0,0,0,4.57-1.8,8.784,8.784,0,0,0,2.571-3.01A10.076,10.076,0,0,0,800.614,592.6Z"/>
      </g>
    </g>
    <rect width="1850" height="480" fill="#fff"/>
    <g>
      <path d="M1182.76,215.61c10,.41,21.23-1.81,29.94,4.44,7.62,5.72,13.07,13.7,19.28,20.82q20.94,25.35,41.99,50.62c.09-25.21.01-50.42.04-75.63h26.75v109c-8.94-.33-18.05.86-26.85-1.08-9.1-2.24-15.49-9.67-21.52-16.31-14.3-16.86-28.25-34.01-42.62-50.81q-.03,34.095-.01,68.2h-27Z"/>
      <path d="M1317.81,233.69c.11-9.14,7.91-17.47,17.11-17.81,21.72-.06,43.43.01,65.14-.03a18.27,18.27,0,0,1,17.89,14.07c.96,4.27.44,8.67.56,13q0,40.965.01,81.93-13.515.015-27.02.01.015-16.5.01-33h-46.75v33h-27c.03-30.39-.07-60.79.05-91.17m26.95,9.17v22.5h46.75q-.015-11.25,0-22.5Z"/>
      <path d="M1439.29,228.12a33.248,33.248,0,0,1,25.72-12.28c20.58.04,41.17.01,61.75.02q-.015,13.38,0,26.75c-20.57.02-41.13-.04-61.7.02a6.883,6.883,0,0,0-6.44,8.18,7.211,7.211,0,0,0,7.4,5.53c11,.06,22.01-.02,33.02.02a34.266,34.266,0,0,1,32.68,40.76c-2.73,15.76-17.74,28.12-33.74,27.75q-30.615-.03-61.22-.01-.015-13.5,0-27c20.09-.02,40.19.03,60.29-.02,4.75.41,9.18-4.36,7.8-9.09a6.979,6.979,0,0,0-6.81-5.37c-11.32-.15-22.65.21-33.96-.18a33.986,33.986,0,0,1-27.84-16.62C1429.2,254.78,1430.37,238.64,1439.29,228.12Z"/>
      <path d="M1544.26,215.86c15.92-.28,31.85-.29,47.79-.25,6.26.15,12.63-.53,18.8.9a34.335,34.335,0,0,1,16.54,8.99,34.988,34.988,0,0,1,23.63-9.87c19.74-.05,39.49-.01,59.24-.02V324.86h-27V242.61c-9.4.07-18.8-.14-28.19.09-7.78.32-14.53,7.36-14.32,15.19q.03,33.48.01,66.97h-27q0-31,.01-62.01c-.06-3.26.29-6.63-.82-9.76a15.41,15.41,0,0,0-13.91-10.42c-9.26-.16-18.52-.01-27.78-.06q-.015,41.115,0,82.25h-27Z"/>
      <path d="M1734,216.36h2.51c-.01,3.06-.02,6.13.02,9.19-.61.04-1.83.1-2.44.14-.11-1.27-.2-2.53-.26-3.78-.44.57-1.32,1.72-1.75,2.29-.48-.55-1.42-1.66-1.9-2.21.03.9.09,2.71.12,3.61-.64,0-1.91.01-2.54.01-.02-3.15-.02-6.3.02-9.45,2.66-.46,3.4,2.05,4.4,3.92C1732.76,218.84,1733.36,217.6,1734,216.36Z"/>
      <path d="M1719.76,216.36c2.31,0,4.61-.01,6.95-.01l.12,2.18-2.32.12c-.02,2.31-.01,4.63.01,6.94l-2.5.04c-.02-2.33-.03-4.67-.01-7.01-.57,0-1.69-.02-2.26-.03Z"/>
      <path d="M1116.61,235.44q27.5-14.325,55.9-26.79-.015,18.3,0,36.6a959.236,959.236,0,0,0-130.25,78.2c23.35-28.39,47.18-56.39,70.66-84.67a11.247,11.247,0,0,1,3.69-3.34Z"/>
      <path d="M1232.5,152.17a950.552,950.552,0,0,1,292.98-25.66c-23.47.51-46.96.87-70.37,2.78a896.246,896.246,0,0,0-281.03,67.62c-14.04,6.05-28.17,11.99-41.74,19.05,3.59-5.23,8.21-9.81,12.13-14.85,8.75-10.31,17.27-20.81,26.09-31.05C1190.85,163.02,1211.68,157.46,1232.5,152.17Z"/>
      <path d="M1456.43,137.05a909.3,909.3,0,0,1,252.04,14.55c-9.48-.45-18.89-1.91-28.36-2.55a955.456,955.456,0,0,0-452.66,70.9c-5.29-6.07-11.96-11.33-19.91-13.27-8.95-2.1-18.19-1.05-27.28-1.34a887.494,887.494,0,0,1,276.17-68.29Z"/>
    </g>
    <path d="M962.26,90.11h5.25V379.36c-1.76,0-3.51,0-5.25.01Z"/>
    <g>
      <path d="M303.45,263.39c11.27-4.92,26.57-2.29,33.53,8.46,1.45,2.93,3.74,6.49,2.11,9.77-4.68-.04-9.35.01-14.02-.02-2.35-6.91-12.15-9.05-17.22-3.93-4.01,4.02-2.61,10.07-2.84,15.15.27,4.5-.7,9.21.74,13.56,2.38,6.34,11.45,7.87,16.36,3.61,2.32-1.84,2.97-4.87,3.63-7.58-3.31-.06-6.63.02-9.93-.24-.08-3.87-.06-7.75-.02-11.62,7.6-.92,15.33-.31,22.98-.36.28.22.85.65,1.13.87-.17,8.62,1.85,18.49-3.92,25.82-8.63,10.99-26.19,12.18-37.23,4.25a19.877,19.877,0,0,1-8.25-16.23c.04-8-.05-15.99.04-23.98C290.9,273.15,296.4,266.32,303.45,263.39Z"/>
      <path d="M473.56,261.61c7.15-1.32,14.92-.45,21.15,3.49a20.247,20.247,0,0,1,9.8,16.75c.01,7.67-.01,15.35.01,23.02a19.929,19.929,0,0,1-7.86,15.92c-6.44,5.08-15.2,6.28-23.1,4.83-7.22-1.52-14.22-6.13-16.97-13.2-2.41-5.88-1.36-12.36-1.58-18.53.26-6.67-.98-13.76,1.98-20,3.01-6.57,9.65-10.8,16.57-12.28m2.9,13.73a10.034,10.034,0,0,0-6.89,9.51c-.16,4.99-.01,9.99-.08,14.98-.03,3.16.25,6.64,2.47,9.1,3.79,4.55,11.54,4.59,15.54.3a11.628,11.628,0,0,0,2.53-8.33c-.1-5.77.11-11.54-.1-17.3-.52-6.31-7.63-10.36-13.47-8.26Z"/>
      <path d="M649.36,262.41c5.52-.13,11.05-.05,16.58-.04,1.53-.29,2,1.4,2.31,2.51q8.79,29.58,17.67,59.14c-4.64,1.69-9.9.68-14.76.62-1.86-3.96-2.44-8.39-3.83-12.53H647.96c-1.23,4.27-2.11,8.67-3.88,12.77-4.37-.11-8.74.15-13.09-.12-.26-.21-.77-.64-1.03-.85,5.59-19.71,11.7-39.29,17.47-58.96.41-.89.57-2.65,1.93-2.54m8.49,14.77c-2.09,7.3-4.12,14.62-6.18,21.92q6.09.015,12.17,0c-2-7.3-3.98-14.62-5.99-21.92Z"/>
      <path d="M378.27,262.67a82.111,82.111,0,0,1,13.58-.18c1.46.93.67,2.91.93,4.32-.05,14.69-.01,29.37-.02,44.05,9.79.07,19.59-.13,29.37.09.27.25.79.75,1.05,1,.01,4.22.5,8.57-.31,12.73-14.74.44-29.52.03-44.27.2a65.887,65.887,0,0,1-.34-10.03Q378.275,288.75,378.27,262.67Z"/>
      <path d="M548.18,262.48c8.6-.3,17.22-.04,25.83-.12,7.5-.03,15.81,3.38,18.78,10.74,2.21,6.19,1.23,14.08-4.21,18.33,8.9,5.22,10.56,18.4,4.23,26.21-4.22,5.25-11.23,7.21-17.73,7.22-8.68-.03-17.36.06-26.04-.03-1.62.21-1.95-1.85-1.8-3.02.16-19.52-.22-39.06.19-58.57l.75-.76m13.58,13.13v10.25c4.92-.28,9.99.61,14.82-.51,4.36-1.46,3.72-8.5-.69-9.41-4.67-.72-9.43-.16-14.13-.33m0,22.25c-.01,4.58,0,9.17,0,13.75,5.22-.25,10.57.57,15.71-.53,5.58-1.54,6.07-10.3.66-12.39-5.28-1.62-10.94-.51-16.37-.83Z"/>
      <path d="M724.98,262.62a79.6,79.6,0,0,1,13.98-.03c.11,16.09.02,32.18.05,48.27,9.93.08,19.86-.15,29.79.1l.88,1.12c.19,3.6.09,7.22.06,10.83a1.992,1.992,0,0,1-2.59,1.95c-13.74-.07-27.49.15-41.22-.11-1.5.11-1.43-1.9-1.44-2.89q.03-27.525-.01-55.05C724.53,265.41,724.36,263.93,724.98,262.62Z"/>
    </g>
    <g>
      <path d="M290.87,171.11c8.07.03,16.13-.04,24.2.03,6.27.13,12.98,1.49,17.63,6.01,5.73,5.23,7.25,13.9,5.12,21.16a19.275,19.275,0,0,1-11.83,12.48c-6.66,2.69-13.99,1.6-20.98,1.82-.09,6.67.16,13.35-.1,20.01-.27.23-.81.68-1.08.91-4.32.23-8.65.01-12.98.07a28.333,28.333,0,0,1-.36-4.78c.04-15.97.01-31.94.02-47.9.03-3.27-.23-6.57.36-9.81m14.14,13.5v14.75c4.92-.32,10.04.71,14.82-.63,5.86-2.21,5.69-11.68-.31-13.58C314.8,183.98,309.83,184.88,305.01,184.61Z"/>
      <path d="M373.79,171.56c5.01-.91,10.15-.26,15.22-.45,8.33.12,17.48-.91,24.83,3.89,11.64,7.09,11.74,26.49.25,33.81,2.88,8.31,7.04,16.24,9.14,24.77-4.73-.02-9.48.19-14.2-.07-1.37-.2-1.5-1.82-2.01-2.81-2.22-6.04-4.52-12.05-6.74-18.09H388.26c-.09,6.71.17,13.43-.11,20.13l-.43.71a107.305,107.305,0,0,1-13.42,0c-.13-.39-.38-1.17-.51-1.56q-.09-30.165,0-60.33m14.47,13.05v14.75c4.87-.22,9.81.46,14.62-.35,6.08-1.51,7.03-10.92,1.29-13.51-5.04-1.88-10.64-.45-15.91-.89Z"/>
      <path d="M460.97,171.75a10.811,10.811,0,0,1,4.03-.66q17.04.045,34.09,0c1.39.26,3.41-.54,4.29.95a115.983,115.983,0,0,1,.04,11.94c-.27.26-.82.79-1.1,1.05-8.93.2-17.87.02-26.81.08v9.75c7.09.08,14.19-.16,21.27.1l.89,1.09a98.562,98.562,0,0,1-.07,11.53l-.73.42c-7.11.28-14.24.02-21.36.11v11.75c9.26.03,18.51-.06,27.76.05a69.583,69.583,0,0,1-.08,13.69c-14.06-.21-28.17.47-42.21-.34Q461.04,202.5,460.97,171.75Z"/>
      <path d="M548.33,171.2c4.58-.21,9.16-.09,13.74-.06,1.59-.23,2.58,1.15,3.16,2.41,3.21,6.38,6.37,12.79,9.59,19.17,3.58-6.82,6.55-13.96,10.36-20.66.32-.21.97-.64,1.3-.85,4.76-.2,9.55-.16,14.31-.02.28.22.84.66,1.12.89.26,20.38-.01,40.78.13,61.17a75.872,75.872,0,0,1-13.73.21l-.44-.73c-.28-13.09-.01-26.2-.13-39.3-2.65,4.84-5.03,9.83-7.73,14.65q-5.5.075-11.01-.01c-2.67-4.8-4.98-9.8-7.49-14.69-.21,13.4.44,26.85-.33,40.22-4.1-.03-8.2.08-12.3-.01-1.53.23-1.8-1.59-1.63-2.69.09-19.57-.12-39.15.1-58.71C547.6,171.94,548.09,171.45,548.33,171.2Z"/>
      <path d="M645.39,171.28c8.86-.41,17.74-.04,26.61-.17,3.01.1,6.15-.44,9.05.63-.14,4.07.11,8.15-.13,12.22-.24.26-.72.8-.96,1.07-3.31.22-6.64.04-9.95.07v34.76c3.54.2,7.25-.49,10.7.38.71,4.28.09,8.7.32,13.03-12.04.77-24.14.14-36.21.33a71.157,71.157,0,0,1-.08-13.69c3.59-.07,7.18-.05,10.77-.05V185.11c-3.61,0-7.22.03-10.83-.06a111.064,111.064,0,0,1-.04-13.03Z"/>
      <path d="M730.25,171.19c13.5-.05,27.04-.31,40.52.13,1.61,3.76.45,8.47.65,12.59l-1.07,1.11c-8.95.24-17.91-.01-26.86.11.02,3.24.02,6.49.02,9.73,7.3-.01,14.59.03,21.89-.03a63.916,63.916,0,0,1,.19,12.75l-.69.42c-7.12.29-14.27.02-21.39.11v11.75c9.12.09,18.25-.18,27.36.12l.8,1.05c.18,3.9.16,7.83,0,11.73l-.75.76c-11.64.22-23.3,0-34.95.1-2.35-.01-4.77.22-7-.64.17-20.31-.13-40.62.15-60.91C729.4,171.85,729.97,171.41,730.25,171.19Z"/>
      <path d="M816.34,171.21c7.56-.25,15.13-.02,22.71-.1,6.63-.01,13.83,1.05,18.86,5.76,9.3,8.24,8.29,25.14-2.18,32.01,3.11,8.13,6.41,16.19,9.47,24.34a80.614,80.614,0,0,1-14.98.22c-.2-.22-.59-.67-.79-.89-2.68-6.59-4.98-13.34-7.57-19.96-4.04.03-8.07.02-12.1.02-.08,6.71.14,13.44-.09,20.15l-.76.76c-4.22.16-8.46.2-12.68-.03l-.86-.91q-.285-30.2-.01-60.41c.24-.24.73-.72.98-.96m13.42,13.4c-.01,4.92,0,9.83,0,14.74,5.01-.24,10.15.56,15.07-.45,6.09-1.79,6.5-11.29.59-13.6-5.05-1.46-10.47-.35-15.66-.69Z"/>
    </g>
    <g>
      <path d="M90.01,90,228.54,228.56c-.07,16.73.01,33.46-.04,50.19-5.84,5.81-11.63,11.66-17.49,17.45V235.75q-60.465-60.555-121-121.03Z" fill="#b99f6e"/>
      <path d="M90.04,138.83q52.1,51.855,103.98,103.93-.03,34.065.01,68.14a4.054,4.054,0,0,1-1.3,3.64q-8.115,8.085-16.22,16.19c-.05-26.88.06-53.76-.06-80.64Q133.115,207.01,90,163.7C90.02,155.41,89.98,147.12,90.04,138.83Z" fill="#b99f6e"/>
      <path d="M124.53,222.33c11.73,11.5,23.19,23.27,34.92,34.77.14,8.28.05,16.56.06,24.84-11.7-11.58-23.28-23.29-34.97-34.89C124.46,238.81,124.5,230.57,124.53,222.33Z" fill="#b99f6e"/>
      <path d="M124.54,271.09c11.73,11.56,23.3,23.27,34.97,34.89-.01,8.3.06,16.6-.04,24.9-11.71-11.54-23.23-23.26-34.92-34.82C124.46,287.74,124.5,279.41,124.54,271.09Z" fill="#b99f6e"/>
    </g>
  </g>
</svg>
