<svg xmlns="http://www.w3.org/2000/svg" viewBox="0 0 549.93 550.004">
  <g>
    <g>
      <path d="M241.542,1.893c33.86-3.79,68.48-2.02,101.53,6.51a275.15,275.15,0,0,1,143.99,91.37c40.28,48.43,63.2,111.12,62.85,174.17a270.938,270.938,0,0,1-30.53,127.41,274.971,274.971,0,0,1-423.41,82.46c-48.48-41.33-81.88-100.02-92.21-162.93a282.412,282.412,0,0,1,1.26-98.96A275.12,275.12,0,0,1,241.542,1.893m7.03,28.76c-5.33,4.26-4.73,14.27,1.95,16.94l-1.84-.02c2.72,4.07,9.02,1.88,11.6,5.88-2.65.28-5.29.53-7.92.9a27.272,27.272,0,0,0,8.81.91c-3.99,2.14-8.25-.21-12.33-.62-3.3.91-4.17,5.9-.95,7.51a18.6,18.6,0,0,0,17.3-.02c5.89-2.94,7.17-11.58,3.21-16.54-3.38-3.97-9.06-3.65-13.51-5.58a2,2,0,0,1-.47-3.62c3.41-3.41,8.96,2.16,12.08-1.77,2.14-2.68-.73-6.08-3.53-6.62-4.83-1.13-10.47-.62-14.4,2.65m31.01-.62c-1.15,2.63,1.41,4.95,3.84,5.32-.46.25-1.37.75-1.83,1,1.43.33,2.85.66,4.29.97-.15,6.65-1.77,13.33-.42,19.96.96-4.58.4-9.32,1.64-13.85-.18,5.84-.98,11.68-.8,17.52,1.22,3.69,7.19,3.28,7.76-.58.66-8.12,1.14-16.26,1.76-24.39a40.972,40.972,0,0,0,6.07.2c3.26-.48,3.9-5.74.76-6.9-5.12-1.12-10.45-.75-15.64-1.43-2.57-.19-6.29-.92-7.43,2.18m-55.41,4.38-.21-1.94a4.718,4.718,0,0,0-1.39,4.6c1.31,6.41,2.08,12.93,3.77,19.25.35-.46,1.06-1.38,1.42-1.84.77,3.48,1.2,7.04,2.29,10.44,1.52,3.66,8.01,2.05,7.53-1.91-1.66-9.35-3.54-18.68-5.42-27.98-.6-4.11-6.41-4-7.99-.62m91.21.79c-1.77,8.61-3.61,17.21-5.37,25.82a3.778,3.778,0,0,0,2.95,4.91c4.34,1.04,8.72,1.96,13.13,2.68,3.43.7,5.64-4.54,2.69-6.5-3.22-1.55-6.93-1.7-10.36-2.62q.75-3.165,1.49-6.33c2.97.67,5.94,1.61,9.01,1.66,3.1-.22,4.1-4.8,1.7-6.55-2.9-1.37-6.16-1.61-9.26-2.26.42-2.11.87-4.21,1.32-6.31,3.27.77,6.54,1.84,9.92,1.92,3.09-.69,4.04-5.56.94-6.9-4.42-1.41-9.06-2.05-13.59-3.05a3.979,3.979,0,0,0-4.57,3.53m-130.73,13.42c-3.98,8.03-.99,18.42,5.82,23.97,7.39,6.03,19.78,3.54,24.56-4.63,2.26-3.76,2.25-8.4,1.39-12.57-.54-2.21-1.78-4.99-4.42-5.08a63.229,63.229,0,0,0-10.97,3.79,3.332,3.332,0,0,0-.66,5.47c2.36,2.83,6.07-.08,8.91-.55a8.181,8.181,0,0,1-8.3,9.34c-6.29-.59-9.88-7.61-9.57-13.38a8.683,8.683,0,0,1,10.57-8.09c2.25.28,4.94,1.78,6.83-.21,2.72-2.17.12-6.09-2.56-6.91-8-2.31-17.77,1.21-21.6,8.85m164.34-7.61c-1.68,2.52-2.42,5.53-3.56,8.32l-.03-1.99c-3.08,2.9-3.5,7.33-5.12,11.04-1.53,4.58-4.65,9.18-3.01,14.19l.75-1.58c1.62,2.21,5.3,3.92,7.3,1.2,2-3.37,2.69-7.33,4.53-10.79q2.085,6.855,4.32,13.67c.54,1.74,1.28,3.77,3.24,4.3,2.61,1.39,6.36-1.42,5.3-4.33a101.689,101.689,0,0,0-4.36-10.73c7.56,1.42,13.89-6.87,11.32-13.86-1.92-5.67-8.23-7.24-13.2-9.14-2.34-.76-5.41-2.54-7.48-.3m-189.68,15.3c-2.91,1.75-6.19,2.96-8.8,5.17-1.88,1.91-.28,4.32.71,6.21,3.95,7.08,7.7,14.25,11.65,21.32.88,1.97,3.29,3.54,5.35,2.23,4.17-2.16,8.38-4.3,12.34-6.83,3.15-2.12-.07-7.73-3.5-6.19a80.4,80.4,0,0,0-8.44,4.51L165.442,77c2.7-1.51,5.6-2.72,8-4.7,2.38-2.13-.23-6.6-3.22-5.97-2.99.86-5.54,2.75-8.25,4.21-1.02-1.85-2.06-3.69-3.1-5.53,2.98-1.77,6.4-2.96,8.93-5.4,1.69-1.82.05-4.54-1.82-5.49-2.48-.61-4.58,1.19-6.67,2.19m224.47,1.48c-4.05,7.28-8.03,14.59-12.09,21.87-.61,1.4-1.93,3-.97,4.56,1,2.04,3.35,2.8,5.17,3.92,3.1,1.53,5.93,3.64,9.23,4.75,2.9.74,5.64-3.23,3.73-5.58-2.63-2.44-6.05-3.76-9.12-5.54,1.06-1.91,2.11-3.82,3.17-5.74a54.025,54.025,0,0,0,8.09,4.3c2.97.68,5.79-3.65,3.5-5.92-2.43-2.08-5.47-3.28-8.11-5.05,1.08-1.74,2.15-3.5,3.22-5.25a65.791,65.791,0,0,0,8.54,4.53c3.5,1.06,6.14-4.72,2.82-6.53a133.822,133.822,0,0,0-12.07-6.67c-2.05-1.11-4.28.46-5.11,2.35m30.67,15.5c-5.72,6.04-10.32,13.08-15.66,19.48-1.37,2.01-4.17,4.3-2.66,6.96,1.81,2.25,4.33,3.77,6.54,5.59,3.02,2.42,6.36,4.78,10.35,5.12,12.27,1.44,23.29-12.81,18.63-24.31-2.05-5.21-7.18-8.02-11.26-11.45-1.63-1.21-4.02-3.23-5.94-1.39m-290.52,5.76c-2.02,1.63-4.32,2.99-5.98,5.04-1.15,1.63.04,3.54,1.04,4.89,4.56,6.11,9.25,12.12,13.78,18.25a17.873,17.873,0,0,0,4.13,4.41c2.9.85,6.75-2.62,4.95-5.51-1.91-3.29-4.6-6.02-6.68-9.19,5.69,1.51,11.42,2.9,17.09,4.49,1.48-.94,3.49-1.64,3.97-3.55.75-1.8-.7-3.96-2.47-4.49a102.905,102.905,0,0,0-11.45-2.09c.99-1.68,2.34-3.3,2.52-5.31,1.06-6.5-5.43-13.02-11.95-11.79-3.49.44-6.22,2.85-8.95,4.85m136.21,14.99a180.226,180.226,0,0,0-80.57,26.49,181.54,181.54,0,1,0,270.84,201.44c12.75-47.21,5.47-99.51-20.18-141.22a181.573,181.573,0,0,0-170.09-86.71M506.7,334.693c-1.69,3-2.17,6.51-3.3,9.74-7.47-2.38-14.99-4.62-22.52-6.81-4.23-1.71-7.22,5.56-2.88,7.16,8.42,2.86,17.02,5.2,25.52,7.82,1.9.77,4.52.54,5.38-1.62,1.66-4.2,2.72-8.63,4.02-12.96,1.42-3.44-4.16-6.38-6.22-3.33m-441.3,1.86c-7.79,2.93-15.85,5.16-23.53,8.32-2.73,1.45-1.5,4.68-.67,6.9,1.44,3.58,2.11,7.54,4.19,10.82,1.76,2.28,5.23.79,6.24-1.47-.22-3.64-1.94-6.96-3.11-10.36,1.98-.74,3.97-1.48,5.96-2.24,1.13,2.86,1.7,6.01,3.36,8.64,2.23,3.07,7.58-.12,6.17-3.53,1.46-1.95.4-4.38.27-6.55.54.07,1.62.19,2.16.26q1.005,2.985,2.11,5.95c.26-.48.79-1.44,1.06-1.92.51,1.61,1.7,3.24,3.54,3.37,2.23-.17,4.81-2.25,3.76-4.7-1.36-4.23-2.68-8.51-4.42-12.6-1.39-2.87-4.78-1.82-7.09-.89m416.12,21.65c-3.19-.09-6.36-.67-9.54-.37a5.59,5.59,0,0,0-4.96,5.12c-.13,2.38,1.67,4.18,3.17,5.79,5.17,5.2,10.52,10.22,15.71,15.41,1.84,1.72,3.63,3.8,6.22,4.36a4.578,4.578,0,0,0,3.47-5.1c-.93-2.11-2.93-3.44-4.57-4.95,1.7-3.86,3.45-7.7,5.14-11.57,2.7.06,6.53,1.47,8.22-1.48a3.862,3.862,0,0,0-2.72-5.88l1.79-1.15a134.048,134.048,0,0,0-17.43-1.67,5.486,5.486,0,0,0-4.5,1.49m-406.2,1.04c-2.8,3.69-4.3,8.17-6.57,12.19-5.58-1.01-11.11-2.49-16.78-2.89-3.57.77-4.35,5.86-.94,7.39,4.53,1.4,9.31,1.75,13.93,2.73-2.29,4.39-5.16,8.59-6.6,13.37.01,3.51,4.92,5.29,7.01,2.43,2.96-4.63,5.05-9.76,7.69-14.58,4.65.79,9.23,2.21,13.95,2.36,3.36-.76,3.87-5.58,1.01-7.23-3.6-1.38-7.54-1.5-11.28-2.3,1.73-3.24,3.8-6.32,5.04-9.79.96-3.48-4-6.64-6.46-3.68m383.39,25.93c4.58,3.72,9.98,6.32,14.67,9.92q-5.94.48-11.85,1.09c-2.2-2.45-5.7-1.5-8.55-1.29-3.51.42-7.81,1.44-8.9,5.34-1.47,3.71,2.54,6.46,5.61,7.37l-.85-1.72c7.66,4.33,14.71,9.66,22.34,14.04,3.32,1.81,7.22-3.86,4.15-6.27-2.46-2.09-5.33-3.61-7.98-5.43l-1-3c4.92-.53,9.84-1.03,14.76-1.55-.59-.38-1.75-1.14-2.33-1.52,3.22-.63,7.74.17,9.46-3.35,1.34-2.25-.92-4.24-2.66-5.32-7.29-4.71-14.52-9.53-21.9-14.1-3.36-2.71-8.19,2.95-4.97,5.79m-375.3,6.32c-5.32,3.68-10.98,6.9-16.06,10.91-1.85,1.88-.27,4.44.93,6.18,2.23,3.14,4.08,6.58,6.62,9.49,2.26,2.81,7.43-.68,5.78-3.85a91.113,91.113,0,0,0-5.19-8.05q2.655-1.755,5.28-3.51c1.68,2.45,3.06,5.17,5.18,7.31,2.5,2.53,7.37-1.39,5.41-4.38a63.959,63.959,0,0,0-4.61-6.84c1.73-1.19,3.47-2.38,5.21-3.55a66.223,66.223,0,0,0,5.29,7.68c2.13,2.33,6.41.02,6.12-2.99-1.44-3.43-3.87-6.31-5.81-9.46-1.35-1.88-2.69-4.72-5.48-4.32-3.18,1.28-5.79,3.58-8.67,5.38m21.33,15.24q-10.605,8.805-20.88,18.05c-3.51,2.34-.04,8.01,3.62,6.68,3.48-1.96,6.08-5.11,9.25-7.49-1.01,5.34-2.22,10.66-3.04,16.05-.73,3.8,5.22,6.67,7.25,2.97,1.4-3.9,1.22-8.18,1.72-12.25,2.28,1.12,4.68,2.49,7.33,2.04,5.65-.91,10.5-6.97,8.79-12.73-1.26-4.48-5.03-7.55-7.81-11.07-1.42-1.84-3.89-4.09-6.23-2.25m332.66,5.92c-6.5,2.63-11.56,9.2-11.5,16.35.46,8.45,7.43,15.57,15.31,17.88,11.89,3.28,24.17-10.25,19.72-21.79-3.49-8.85-13.95-16.16-23.53-12.44m-325.83,27.81,1.54-.79c-2.39,3.61-4.19,7.85-3.86,12.27.54,7.38,6.67,13.57,13.69,15.28a4.506,4.506,0,0,0,5.41-4.27c-.78-2.66-3.87-3.01-5.9-4.33-3.49-1.66-6.07-5.77-4.62-9.64,1.62-4.76,5.98-9.22,11.27-9.22,4.31.33,6.59,4.24,8.67,7.5,1.72,2.79,6.18.61,6.35-2.22.18-2.97-1.89-5.42-3.77-7.47-3.96-4.2-9.89-6.7-15.67-5.61-.48-.3-1.42-.88-1.89-1.18-4.71,1.56-9.58,4.76-11.22,9.68m301.73-5.47a3.824,3.824,0,0,0-.61,6.33c5.89,6.79,11.56,13.79,17.67,20.4,1.72,2.19,5.12,1.1,6.22-1.16,1.5-1.96-.61-4.04-1.74-5.57-5.44-6.18-10.68-12.55-16.16-18.69-1.3-1.64-3.5-2.88-5.38-1.31m-12.96,10.49c-3.97,1.54-7.67,4.34-9.51,8.25-2.46,5.05.44,11.74,5.57,13.76,4.7,1.28,9.11-1.53,13.65-2.26,2.3-.59,4.39,2.68,2.81,4.52-2.38,3.25-6.85,3.15-10.02,5.1-2.95,2.26-.27,7.15,3.15,6.74,5.83-.61,11.64-3.98,14.53-9.18,3-5.21.03-12.07-4.98-14.77-4.07-1.99-8.49.09-12.49,1.19-1.41.36-3.52,1.38-4.45-.32-1.69-2.09.99-4.31,2.87-4.97,2.28-1.17,6.05-1.51,6.24-4.71-.11-3.58-4.57-4.91-7.37-3.35m-251.86,2.8c-3.17,3.62-5.57,7.84-8.45,11.69-2.69,4.07-5.89,7.82-8.23,12.12-1.75,3.42,3.94,7.21,6.34,4,4.65-5.78,8.54-12.14,12.95-18.1,1.51-2.26,3.45-4.35,4.19-7.01-.24-3.03-4.69-5.47-6.8-2.7m6.03,20.6c1.47,4.86,6.61,7.33,8.49,11.96-.36,1.71-2.04,3.46-3.91,2.83-4.33-1.01-5.86-6.25-10.08-7.31-1.92.54-3.01,2.29-4.21,3.72,1.6,5.28,6.28,8.95,11.27,10.85,3.72,1.35,8.32,1.2,11.31-1.66,2.97-2.74,5.25-7.17,3.66-11.2-1.69-4.42-5.96-7.05-8.31-11.04.53-1.26,1.72-2.79,3.28-2.39,3.34.84,4.96,4.37,8.05,5.64,2.97.35,5.44-3.54,3.6-6.02a16.794,16.794,0,0,0-11.57-7.3c-6.48-1.16-13.05,5.46-11.58,11.92m217.34-6.76.82-1.6a12.946,12.946,0,0,0-8.52,16.14c.3-.51.88-1.54,1.17-2.05,1.23,3.14,3.16,6.59,6.72,7.42,4.32.94,8.57-1.13,12.9-.92,2.01.25,3.23,2.99,1.73,4.52-2.54,3.03-6.85,2.64-10.29,3.74-3.46,1.45-2.08,7.26,1.6,7.27a18.722,18.722,0,0,0,15.74-7.03c3.95-5.1,1.49-13.36-4.18-16.06-4.74-1.96-9.72.53-14.57.53-.99-.77-1.98-1.99-1.27-3.28,2.08-3.74,7.51-1.99,10-5.17,1.46-2.12-.49-5.1-2.79-5.5-3.16-.53-6.22.78-9.06,1.99m-187.93,9.75q-4.845,11.73-9.64,23.48c-1.18,2,.33,4.37,2.32,5.09q5.67,2.55,11.51,4.75c3.39,1.96,7.14-3.9,3.71-6.02-2.81-1.76-6.03-2.7-9.07-3.97.87-1.97,1.73-3.94,2.6-5.9a63.29,63.29,0,0,0,7.73,3.16c3.16,1.01,5.92-3.82,3.41-5.97-2.58-1.81-5.69-2.65-8.53-3.95.83-1.88,1.65-3.75,2.48-5.61,3.2,1.28,6.28,2.99,9.7,3.62,2.62-.79,4.33-4.62,1.75-6.48a103.009,103.009,0,0,0-12.99-5.5c-2.4-1.07-4.28,1.3-4.98,3.3m160.86,3.03c-2.04.63-4.22,2.63-3.14,4.96,2.75,7.9,5.87,15.68,8.69,23.56.66,2.01,2.12,4.72,4.67,4.18a129.909,129.909,0,0,0,13.49-5.13c3.14-1.43,1.63-6.28-1.44-6.7-3.46.59-6.61,2.24-9.9,3.36q-1.08-3-2.16-5.98c2.9-1.13,6-1.88,8.63-3.59,2.3-2.18-.08-4.82-1.5-6.65l1.45-.55c-3.56-1.19-7.06.43-10.43,1.44.03-.59.1-1.77.13-2.36,2.93-1.24,6.39-2.01,8.15-4.93l-1.68.52c1.68-2.36.35-6.28-2.72-6.41-4.21.97-8.18,2.81-12.24,4.28m-22.99,6.64c-1.94.36-3.88,2.13-3.32,4.25,1.79,7.91,3.95,15.73,5.84,23.61.59,2.02.8,4.5,2.81,5.69a4.227,4.227,0,0,0,5.75-3.1c-.46-3.87-1.75-7.57-2.66-11.35,2.93-.82,6.11-1.12,8.8-2.63,2.41-1.95.81-5.99-2.06-6.4a60.727,60.727,0,0,0-8.42,2.03c-.53-1.98-1.04-3.95-1.55-5.93,3.08-.85,6.31-1.26,9.25-2.58,3.24-1.5,1.24-7.24-2.19-6.53-4.15.68-8.19,1.88-12.25,2.94m-98.18,2.74c-1.84,8.89-3.4,17.86-5.1,26.79-1.13,3.78,4.6,6.4,6.87,3.32,1.54-2.81,1.51-6.17,2.25-9.24,3.73.67,7.54,2.01,11.34,1.1,7.99-1.99,11.01-13.69,5.16-19.39-3.92-4.14-10.08-3.89-15.23-5.15-2.1-.66-4.89.13-5.29,2.57m34.94,1.81c-2.46-.38-5.5.31-6.13,3.08-.26-.46-.79-1.4-1.05-1.87-1.47,9.54-1.5,19.2-1.95,28.82-.26,1.65.92,2.95,1.76,4.23l.03-1.8c1.68,2.54,5.94,3.1,7.39.04.96-3.85.56-7.88.96-11.81,2.88,4.05,5.67,8.16,8.6,12.17.97,1.17,2.09,2.76,3.83,2.6,2.73.46,5.6-2.95,3.92-5.42-2.11-3.24-4.85-6.01-7.34-8.95,1.98-.74,4.17-1.31,5.65-2.93,2.87-2.75,3.19-7.2,2.16-10.84-1.2-3.64-4.76-5.88-8.31-6.8l1.47-1.18c-3.65-.58-7.56-1.05-10.99.66m26.54,4.98c-5.06,7.17-4.17,17.8,1.39,24.45,6.9,7.76,20.43,6.3,26.54-1.72l-.55,1.75c5.92-3.93,5.43-12.12,4.36-18.27-1.62-4.7-4.13-10.38-9.43-11.7l.88,1.56C300.922,482.913,290.372,484.133,285.092,491.073Z" fill="#5c2483"/>
      <path d="M353.892,54.693c.73-1.11.85-2.98,2.26-3.45a35.937,35.937,0,0,1,3.53.93c.02,1.3.04,2.61.07,3.91C357.782,55.663,355.832,55.193,353.892,54.693Z" fill="#5c2483"/>
      <path d="M132.332,82.353c2.96-1.53,6.64,2.73,4.56,5.4-1.46,1.84-3.52,3.07-5.38,4.47-1.53-2.04-3.08-4.07-4.65-6.07A38.718,38.718,0,0,1,132.332,82.353Z" fill="#5c2483"/>
      <path d="M405.072,97.843c4.21-5.32,8.3-10.72,12.56-16,2.82,2.52,6.99,4.87,6.93,9.17a13.3,13.3,0,0,1-8.6,11.23C411.7,103.613,408.222,100.113,405.072,97.843Z" fill="#5c2483"/>
      <path d="M236.812,140.8c2.01-1.58,4.1.61,5.32,2.11q8.535,10.95,16.7,22.18c2.62,3.74,6.41,7.89,11.51,6.65-2.63-2.29-5.56-4.95-5.53-8.75-.41-5.53,4.74-10.67,10.29-10.06,5.78.2,10.31,6.49,8.62,12.03-.62,3.05-3.31,4.89-5.39,6.93,4.13.74,7.6-1.81,9.94-4.93,6.13-8.12,12.1-16.37,18.4-24.36,1.19-1.51,3.46-3.42,5.27-1.65,2.07,1.16,1.2,3.61.09,5.13-7.17,11.01-14.18,22.18-19.95,34.01-3.35,7.4-7.51,15.42-5.49,23.78,4.72,25.2,11.42,49.98,17.1,74.97.51,2.15.85,5.48-1.71,6.44a4.223,4.223,0,0,1-5.89-3.33c-5.31-18.01-10.56-36.05-16.69-53.81a75.146,75.146,0,0,0-3.81-9.13c-3.63-.48-4.23,3.61-5.33,6.11-6.76,18.9-12.27,38.22-17.97,57.46-.57,3.28-5.45,4.14-7.23,1.41-1-1.89-.39-4.13,0-6.1,5.22-22.26,10.88-44.42,15.55-66.81.84-5.3,2.81-10.72,1.49-16.11-1.53-6.82-4.7-13.12-7.85-19.31-5.38-10.36-11.63-20.21-17.97-29.99C235.1,144.213,234.832,141.733,236.812,140.8Z" fill="#5c2483"/>
      <path d="M475.682,364.413c4.29.51,8.58,1.1,12.89,1.49q-1.59,3.78-3.35,7.49C482.122,370.313,478.7,367.573,475.682,364.413Z" fill="#5c2483"/>
      <path d="M101.022,420.1q2.91-2.4,5.79-4.83c1.59,2.13,3.98,3.96,4.48,6.71a4.4,4.4,0,0,1-4.38,3.65C104.3,424.623,102.852,422.053,101.022,420.1Z" fill="#5c2483"/>
      <path d="M438.442,420.473c5.86-2.75,12.03,2.45,14.64,7.44,2.88,5.17-2.1,12.13-7.84,11.37a14.742,14.742,0,0,1-10.98-9.38C432.772,426.273,435.192,422.153,438.442,420.473Z" fill="#5c2483"/>
      <path d="M232.432,490.853a23.059,23.059,0,0,1,3.74,1.98c.87,1.12.53,2.72.86,4.05a12.822,12.822,0,0,1-5.94-.03Q231.752,493.853,232.432,490.853Z" fill="#5c2483"/>
      <path d="M295.472,492.563c3.25-1.16,7.31-.42,9.31,2.58,2.87,4.34,3.52,10.63.55,15.07-3,4.37-10.43,4.09-12.99-.61C289.182,504.393,289.042,495.323,295.472,492.563Z" fill="#5c2483"/>
      <path d="M260.092,493.543c2.71.45,6.46-.7,8.34,1.91,1.68,2.01.06,5.54-2.47,5.77-2.06.14-4.12-.03-6.18-.08Q259.887,497.333,260.092,493.543Z" fill="#5c2483"/>
    </g>
    <g>
      <path d="M248.572,30.653c3.93-3.27,9.57-3.78,14.4-2.65,2.8.54,5.67,3.94,3.53,6.62-3.12,3.93-8.67-1.64-12.08,1.77a2,2,0,0,0,.47,3.62c4.45,1.93,10.13,1.61,13.51,5.58,3.96,4.96,2.68,13.6-3.21,16.54a18.6,18.6,0,0,1-17.3.02c-3.22-1.61-2.35-6.6.95-7.51,4.08.41,8.34,2.76,12.33.62.74-1.41,1.5-3.19-.03-4.4-3.16-2.02-7.08-2.25-10.62-3.27C243.842,44.923,243.242,34.913,248.572,30.653Z" fill="#fff"/>
      <path d="M279.582,30.033c1.14-3.1,4.86-2.37,7.43-2.18,5.19.68,10.52.31,15.64,1.43,3.14,1.16,2.5,6.42-.76,6.9a40.972,40.972,0,0,1-6.07-.2c-.62,8.13-1.1,16.27-1.76,24.39-.57,3.86-6.54,4.27-7.76.58-.18-5.84.62-11.68.8-17.52.26-2.68.44-5.37.66-8.05-1.45-.02-2.9-.03-4.34-.03C280.992,34.983,278.432,32.663,279.582,30.033Z" fill="#fff"/>
      <path d="M224.172,34.413c1.58-3.38,7.39-3.49,7.99.62,1.88,9.3,3.76,18.63,5.42,27.98.48,3.96-6.01,5.57-7.53,1.91-1.09-3.4-1.52-6.96-2.29-10.44C226.652,47.773,224.852,41.183,224.172,34.413Z" fill="#fff"/>
      <path d="M315.382,35.2a3.979,3.979,0,0,1,4.57-3.53c4.53,1,9.17,1.64,13.59,3.05,3.1,1.34,2.15,6.21-.94,6.9-3.38-.08-6.65-1.15-9.92-1.92-.45,2.1-.9,4.2-1.32,6.31,3.1.65,6.36.89,9.26,2.26,2.4,1.75,1.4,6.33-1.7,6.55-3.07-.05-6.04-.99-9.01-1.66q-.735,3.165-1.49,6.33c3.43.92,7.14,1.07,10.36,2.62,2.95,1.96.74,7.2-2.69,6.5-4.41-.72-8.79-1.64-13.13-2.68a3.778,3.778,0,0,1-2.95-4.91C311.772,52.413,313.612,43.813,315.382,35.2Z" fill="#fff"/>
      <path d="M184.652,48.623c3.83-7.64,13.6-11.16,21.6-8.85,2.68.82,5.28,4.74,2.56,6.91-1.89,1.99-4.58.49-6.83.21a8.683,8.683,0,0,0-10.57,8.09c-.31,5.77,3.28,12.79,9.57,13.38a8.181,8.181,0,0,0,8.3-9.34c-2.84.47-6.55,3.38-8.91.55a3.332,3.332,0,0,1,.66-5.47A63.229,63.229,0,0,1,212,50.313c2.64.09,3.88,2.87,4.42,5.08.86,4.17.87,8.81-1.39,12.57-4.78,8.17-17.17,10.66-24.56,4.63C183.662,67.043,180.672,56.653,184.652,48.623Z" fill="#fff"/>
      <path d="M348.992,41.013c2.07-2.24,5.14-.46,7.48.3,4.97,1.9,11.28,3.47,13.2,9.14,2.57,6.99-3.76,15.28-11.32,13.86a101.689,101.689,0,0,1,4.36,10.73c1.06,2.91-2.69,5.72-5.3,4.33-1.96-.53-2.7-2.56-3.24-4.3q-2.235-6.81-4.32-13.67c-1.84,3.46-2.53,7.42-4.53,10.79-2,2.72-5.68,1.01-7.3-1.2,1.57-7.5,5.11-14.38,7.41-21.66,1.14-2.79,1.88-5.8,3.56-8.32m5.41,7.49c-.85,2.33-1.74,4.65-2.71,6.94,2.31.99,4.61,2.32,7.19,2.4a4.895,4.895,0,0,0,3.33-3.92C361.582,50.193,357.242,49.773,354.4,48.5Z" fill="#fff"/>
      <path d="M159.312,56.313c2.09-1,4.19-2.8,6.67-2.19,1.87.95,3.51,3.67,1.82,5.49-2.53,2.44-5.95,3.63-8.93,5.4,1.04,1.84,2.08,3.68,3.1,5.53,2.71-1.46,5.26-3.35,8.25-4.21,2.99-.63,5.6,3.84,3.22,5.97-2.4,1.98-5.3,3.19-8,4.7l3.18,5.73a80.4,80.4,0,0,1,8.44-4.51c3.43-1.54,6.65,4.07,3.5,6.19-3.96,2.53-8.17,4.67-12.34,6.83-2.06,1.31-4.47-.26-5.35-2.23-3.95-7.07-7.7-14.24-11.65-21.32-.99-1.89-2.59-4.3-.71-6.21C153.122,59.273,156.4,58.063,159.312,56.313Z" fill="#fff"/>
      <path d="M383.782,57.793c.83-1.89,3.06-3.46,5.11-2.35a133.822,133.822,0,0,1,12.07,6.67c3.32,1.81.68,7.59-2.82,6.53a65.791,65.791,0,0,1-8.54-4.53c-1.07,1.75-2.14,3.51-3.22,5.25,2.64,1.77,5.68,2.97,8.11,5.05,2.29,2.27-.53,6.6-3.5,5.92a54.025,54.025,0,0,1-8.09-4.3c-1.06,1.92-2.11,3.83-3.17,5.74,3.07,1.78,6.49,3.1,9.12,5.54,1.91,2.35-.83,6.32-3.73,5.58-3.3-1.11-6.13-3.22-9.23-4.75-1.82-1.12-4.17-1.88-5.17-3.92-.96-1.56.36-3.16.97-4.56C375.752,72.383,379.732,65.073,383.782,57.793Z" fill="#fff"/>
      <path d="M414.452,73.293c1.92-1.84,4.31.18,5.94,1.39,4.08,3.43,9.21,6.24,11.26,11.45,4.66,11.5-6.36,25.75-18.63,24.31-3.99-.34-7.33-2.7-10.35-5.12-2.21-1.82-4.73-3.34-6.54-5.59-1.51-2.66,1.29-4.95,2.66-6.96,5.34-6.4,9.94-13.44,15.66-19.48m-9.38,24.55c3.15,2.27,6.63,5.77,10.89,4.4a13.3,13.3,0,0,0,8.6-11.23c.06-4.3-4.11-6.65-6.93-9.17C413.372,87.123,409.282,92.523,405.072,97.843Z" fill="#fff"/>
      <path d="M123.932,79.053c2.73-2,5.46-4.41,8.95-4.85,6.52-1.23,13.01,5.29,11.95,11.79-.18,2.01-1.53,3.63-2.52,5.31a102.905,102.905,0,0,1,11.45,2.09c1.77.53,3.22,2.69,2.47,4.49-.48,1.91-2.49,2.61-3.97,3.55-5.67-1.59-11.4-2.98-17.09-4.49,2.08,3.17,4.77,5.9,6.68,9.19,1.8,2.89-2.05,6.36-4.95,5.51a17.873,17.873,0,0,1-4.13-4.41c-4.53-6.13-9.22-12.14-13.78-18.25-1-1.35-2.19-3.26-1.04-4.89,1.66-2.05,3.96-3.41,5.98-5.04m8.4,3.3a38.718,38.718,0,0,0-5.47,3.8c1.57,2,3.12,4.03,4.65,6.07,1.86-1.4,3.92-2.63,5.38-4.47C138.972,85.083,135.292,80.823,132.332,82.353Z" fill="#fff"/>
      <path d="M260.142,94.043a181.573,181.573,0,0,1,170.09,86.71c25.65,41.71,32.93,94.01,20.18,141.22a181.584,181.584,0,1,1-190.27-227.93m-23.33,46.76c-1.98.93-1.71,3.41-.53,4.87,6.34,9.78,12.59,19.63,17.97,29.99,3.15,6.19,6.32,12.49,7.85,19.31,1.32,5.39-.65,10.81-1.49,16.11-4.67,22.39-10.33,44.55-15.55,66.81-.39,1.97-1,4.21,0,6.1,1.78,2.73,6.66,1.87,7.23-1.41,5.7-19.24,11.21-38.56,17.97-57.46,1.1-2.5,1.7-6.59,5.33-6.11a75.146,75.146,0,0,1,3.81,9.13c6.13,17.76,11.38,35.8,16.69,53.81a4.223,4.223,0,0,0,5.89,3.33c2.56-.96,2.22-4.29,1.71-6.44-5.68-24.99-12.38-49.77-17.1-74.97-2.02-8.36,2.14-16.38,5.49-23.78,5.77-11.83,12.78-23,19.95-34.01,1.11-1.52,1.98-3.97-.09-5.13-1.81-1.77-4.08.14-5.27,1.65-6.3,7.99-12.27,16.24-18.4,24.36-2.34,3.12-5.81,5.67-9.94,4.93,2.08-2.04,4.77-3.88,5.39-6.93,1.69-5.54-2.84-11.83-8.62-12.03-5.55-.61-10.7,4.53-10.29,10.06-.03,3.8,2.9,6.46,5.53,8.75-5.1,1.24-8.89-2.91-11.51-6.65q-8.19-11.205-16.7-22.18c-1.22-1.5-3.31-3.69-5.32-2.11m-66.65,24.91c7.86,12.71,16.45,25.23,21.47,39.43a20.981,20.981,0,0,1,.63,12.08c-4.04,20.72-9.43,41.14-14.18,61.69-.24,2.05-1.41,5.11,1.06,6.25,2.11,1.56,4.97-.39,5.31-2.75,4.26-14.84,8.69-29.63,13.64-44.26,1.16-3.13,1.99-6.48,4.04-9.18,2.5-.44,3.01,2.48,3.85,4.19,5.91,16.25,10.58,32.91,15.53,49.46a3.546,3.546,0,0,0,4.49,2.86c2.5-.4,2.55-3.58,2.01-5.5-4.87-21.35-10.55-42.52-14.64-64.04-1.48-6.48,1.4-12.75,3.95-18.54,5.02-10.61,11.3-20.57,17.68-30.4.82-1.2,1.86-3.32.22-4.32-1.63-1.91-3.89.08-4.99,1.52-5.48,6.89-10.53,14.11-15.95,21.04a9.928,9.928,0,0,1-7.89,3.91c1.88-2.13,4.44-4.07,4.78-7.11a8.242,8.242,0,0,0-7.17-9.35c-4.77-.73-9.33,3.56-9.2,8.32-.12,3.37,2.7,5.61,4.67,7.96a9.14,9.14,0,0,1-7.78-3.58c-5.28-6.74-10.19-13.76-15.48-20.49a21.933,21.933,0,0,0-4.12-3.63c-1.01,1.2-3.22,2.64-1.93,4.44m141.87-1.61a121.454,121.454,0,0,0,7.44,11.73l.03.3c5.61,9.45,11.36,18.93,15,29.35a21.694,21.694,0,0,1,.46,11.69c-3.44,18-8.08,35.74-12.22,53.59-1.02,4.76-3.06,9.54-1.98,14.49,1.75.09,3.5.11,5.26.04,5.86-17.75,10.43-35.95,17.07-53.44.54-1.34,1.17-2.87,2.82-3.05,1.82,1.13,2.27,3.4,3.11,5.23,5.77,16,10.34,32.4,15.26,48.68.33,2.52,3.75,4.07,5.64,2.14,1.81-1.41.76-3.92.57-5.8-4.41-18.98-9.25-37.87-13.26-56.95-1.04-5.39-2.59-11.09-.51-16.44,4.95-14.29,13.62-26.86,21.49-39.64,1.4-1.67-.34-3.21-1.14-4.63a10.3,10.3,0,0,0-4.45,3.17c-5.29,6.72-10.27,13.68-15.44,20.49a9.89,9.89,0,0,1-7.95,4.05c3.61-3.04,6.45-8.32,3.37-12.74-3.26-5.65-12.62-4.52-14.56,1.67-1.97,4.26,1.25,8.12,4.03,11.02-6.1.31-9.12-5.64-12.31-9.77-3.07-3.78-5.51-8.14-9.03-11.51a16.721,16.721,0,0,0-5.69-6.32c-1.01.88-2.02,1.76-3.01,2.65M163.5,306.343c-2.57,2.07-2.74,5.59-2.7,8.63.11,20.34-.05,40.69.08,61.04a7.8,7.8,0,0,0,5.36,7.73c5.22,2.02,11.71-1.91,11.32-7.76-.17-7.96,0-15.92-.12-23.87.23-.05.7-.14.93-.18,7.25,9.61,15.32,18.58,22.78,28.03,1.82,2.49,4.63,4.4,7.83,4.23,6.44.31,11.08-8.72,6.19-13.36-6.27-6.8-12.55-13.6-19.02-20.22,6.29-1.1,12.69-3.72,16.64-8.97,4.11-5.21,4.46-12.34,3.32-18.63-1.06-6.64-5.28-12.88-11.53-15.61-9.28-4.43-19.78-2.51-29.68-2.95-3.79.17-8.26-.8-11.4,1.89m68.03,6.73c-.1,18.99.03,37.99-.05,56.98,0,3.69-.54,7.72,1.97,10.81,2.36,2.75,6.24,2.69,9.56,2.71q16.485-.045,32.98.01c2.62-.05,5.63-.01,7.61-2.05,3.46-3.03,3.38-9.2-.37-11.96-2.03-1.61-4.78-1.37-7.21-1.45-9.26.08-18.52.01-27.79.05,0-5.59.03-11.17-.05-16.76,9.6-.18,19.22.18,28.82-.15,3.77-.01,6.87-3.53,6.93-7.2a7.354,7.354,0,0,0-6.85-8.07c-9.61-.28-19.23.05-28.84-.12-.02-5.33,0-10.66-.03-15.98,9.94-.2,19.9.13,29.84-.14,4.47.02,7.79-4.6,7.06-8.86-.24-2.51-2.26-4.21-3.88-5.91l-.39.08a39.046,39.046,0,0,0-7.78-.57c-11.36.14-22.72-.07-34.08.08-4.37-.02-7.58,4.36-7.45,8.5m71.01-6.58a7.93,7.93,0,0,0-2.44,6.44c-.01,20.66.03,41.33-.02,61.99-.05,2.67.45,5.66,2.73,7.38,4.39,3.86,12.85,1.79,13.72-4.4.73-6.82-.01-13.7.39-20.55,10.11.07,21.37,1.09,29.86-5.54,13.63-9.66,13.28-32.7-.48-42.1-9.32-6.97-21.43-4.96-32.28-5.26-3.83.17-8.38-.85-11.48,2.04m70.72,28.84a17.358,17.358,0,0,0-8.11,4.84c-4.76,5.14-4.99,14.37.7,18.94,4.91,4.46,11.99,4.97,17.24,8.8,2.55,1.72.39,5.22-2.16,5.42-5.18.97-9.18-3.09-13.88-4.31-3.95-1.13-7.62,3.09-7.05,6.83,1.37,3.9,5.36,6.02,9.04,7.32,7.1,2.6,15.77,2.42,22-2.22,5.56-4.06,7.62-12.75,3.4-18.45-3.54-4.67-9.41-6.41-14.64-8.44-1.95-.85-4.23-1.59-5.39-3.51-1.12-1.83.92-3.9,2.69-4.24,5.05-1.01,9.04,3.42,13.92,3.65a6.426,6.426,0,0,0,4.59-6.01c-.2-3.28-2.92-5.69-5.69-7.01A25.635,25.635,0,0,0,373.262,335.333Z" fill="#fff"/>
      <path d="M316.732,319.463c4.92-.12,9.9-.56,14.78.22,8.65,2.28,10.64,15.26,3.62,20.45-5.18,4.11-12.19,1.89-18.23,2.5C316.692,334.913,316.952,327.183,316.732,319.463Z" fill="#fff"/>
      <path d="M177.592,319.833c5.29.26,10.77-.73,15.93.8,7.36,2.56,7.64,14.46.63,17.6-5.26,2.05-11.07.91-16.57,1.16C177.572,332.873,177.562,326.353,177.592,319.833Z" fill="#fff"/>
      <path d="M506.7,334.693c2.06-3.05,7.64-.11,6.22,3.33-1.3,4.33-2.36,8.76-4.02,12.96-.86,2.16-3.48,2.39-5.38,1.62-8.5-2.62-17.1-4.96-25.52-7.82-4.34-1.6-1.35-8.87,2.88-7.16,7.53,2.19,15.05,4.43,22.52,6.81C504.532,341.2,505.012,337.693,506.7,334.693Z" fill="#fff"/>
      <path d="M65.4,336.553c2.31-.93,5.7-1.98,7.09.89,1.74,4.09,3.06,8.37,4.42,12.6,1.05,2.45-1.53,4.53-3.76,4.7-1.84-.13-3.03-1.76-3.54-3.37-.76-2.4-1.57-4.77-2.38-7.14-1.92.68-3.83,1.35-5.75,2.01.84,2.47,1.72,4.91,2.53,7.39,1.41,3.41-3.94,6.6-6.17,3.53-1.66-2.63-2.23-5.78-3.36-8.64-1.99.76-3.98,1.5-5.96,2.24,1.17,3.4,2.89,6.72,3.11,10.36-1.01,2.26-4.48,3.75-6.24,1.47-2.08-3.28-2.75-7.24-4.19-10.82-.83-2.22-2.06-5.45.67-6.9C49.552,341.713,57.612,339.483,65.4,336.553Z" fill="#fff"/>
      <path d="M75.322,359.243c2.46-2.96,7.42.2,6.46,3.68-1.24,3.47-3.31,6.55-5.04,9.79,3.74.8,7.68.92,11.28,2.3,2.86,1.65,2.35,6.47-1.01,7.23-4.72-.15-9.3-1.57-13.95-2.36-2.64,4.82-4.73,9.95-7.69,14.58-2.09,2.86-7,1.08-7.01-2.43,1.44-4.78,4.31-8.98,6.6-13.37-4.62-.98-9.4-1.33-13.93-2.73-3.41-1.53-2.63-6.62.94-7.39,5.67.4,11.2,1.88,16.78,2.89C71.022,367.413,72.522,362.933,75.322,359.243Z" fill="#fff"/>
      <path d="M467.022,362.953a5.59,5.59,0,0,1,4.96-5.12c3.18-.3,6.35.28,9.54.37,6.72.32,13.43.81,20.14,1.33a3.862,3.862,0,0,1,2.72,5.88c-1.69,2.95-5.52,1.54-8.22,1.48-1.69,3.87-3.44,7.71-5.14,11.57,1.64,1.51,3.64,2.84,4.57,4.95a4.578,4.578,0,0,1-3.47,5.1c-2.59-.56-4.38-2.64-6.22-4.36-5.19-5.19-10.54-10.21-15.71-15.41-1.5-1.61-3.3-3.41-3.17-5.79m8.66,1.46c3.02,3.16,6.44,5.9,9.54,8.98q1.755-3.7,3.35-7.49C484.262,365.513,479.972,364.923,475.682,364.413Z" fill="#fff"/>
      <path d="M458.712,385.173c-3.22-2.84,1.61-8.5,4.97-5.79,7.38,4.57,14.61,9.39,21.9,14.1,1.74,1.08,4,3.07,2.66,5.32-1.72,3.52-6.24,2.72-9.46,3.35-6.05.56-12.08,1.28-18.14,1.68,2.22,1.48,4.47,2.93,6.71,4.39,2.65,1.82,5.52,3.34,7.98,5.43,3.07,2.41-.83,8.08-4.15,6.27-7.63-4.38-14.68-9.71-22.34-14.04-2.71-1.58-4.84-5.34-1.53-7.6,4.43-1.89,9.52-1.31,14.22-2.1q5.91-.6,11.85-1.09C468.692,391.493,463.292,388.893,458.712,385.173Z" fill="#fff"/>
      <path d="M83.412,391.493c2.88-1.8,5.49-4.1,8.67-5.38,2.79-.4,4.13,2.44,5.48,4.32,1.94,3.15,4.37,6.03,5.81,9.46.29,3.01-3.99,5.32-6.12,2.99a66.223,66.223,0,0,1-5.29-7.68c-1.74,1.17-3.48,2.36-5.21,3.55a63.959,63.959,0,0,1,4.61,6.84c1.96,2.99-2.91,6.91-5.41,4.38-2.12-2.14-3.5-4.86-5.18-7.31q-2.625,1.755-5.28,3.51a91.113,91.113,0,0,1,5.19,8.05c1.65,3.17-3.52,6.66-5.78,3.85-2.54-2.91-4.39-6.35-6.62-9.49-1.2-1.74-2.78-4.3-.93-6.18C72.432,398.393,78.092,395.173,83.412,391.493Z" fill="#fff"/>
      <path d="M104.742,406.733c2.34-1.84,4.81.41,6.23,2.25,2.78,3.52,6.55,6.59,7.81,11.07,1.71,5.76-3.14,11.82-8.79,12.73-2.65.45-5.05-.92-7.33-2.04-.5,4.07-.32,8.35-1.72,12.25-2.03,3.7-7.98.83-7.25-2.97.82-5.39,2.03-10.71,3.04-16.05-3.17,2.38-5.77,5.53-9.25,7.49-3.66,1.33-7.13-4.34-3.62-6.68q10.26-9.225,20.88-18.05m-3.72,13.37c1.83,1.95,3.28,4.52,5.89,5.53a4.4,4.4,0,0,0,4.38-3.65c-.5-2.75-2.89-4.58-4.48-6.71Q103.932,417.7,101.022,420.1Z" fill="#fff"/>
      <path d="M437.4,412.653c9.58-3.72,20.04,3.59,23.53,12.44,4.45,11.54-7.83,25.07-19.72,21.79-7.88-2.31-14.85-9.43-15.31-17.88-.06-7.15,5-13.72,11.5-16.35m1.04,7.82c-3.25,1.68-5.67,5.8-4.18,9.43a14.742,14.742,0,0,0,10.98,9.38c5.74.76,10.72-6.2,7.84-11.37C450.472,422.923,444.3,417.723,438.442,420.473Z" fill="#fff"/>
      <path d="M124.682,431.963c5.78-1.09,11.71,1.41,15.67,5.61,1.88,2.05,3.95,4.5,3.77,7.47-.17,2.83-4.63,5.01-6.35,2.22-2.08-3.26-4.36-7.17-8.67-7.5-5.29,0-9.65,4.46-11.27,9.22-1.45,3.87,1.13,7.98,4.62,9.64,2.03,1.32,5.12,1.67,5.9,4.33a4.506,4.506,0,0,1-5.41,4.27c-7.02-1.71-13.15-7.9-13.69-15.28-.33-4.42,1.47-8.66,3.86-12.27C116.242,436.153,120.042,433.153,124.682,431.963Z" fill="#fff"/>
      <path d="M413.3,434.993c1.88-1.57,4.08-.33,5.38,1.31,5.48,6.14,10.72,12.51,16.16,18.69,1.13,1.53,3.24,3.61,1.74,5.57-1.1,2.26-4.5,3.35-6.22,1.16-6.11-6.61-11.78-13.61-17.67-20.4A3.824,3.824,0,0,1,413.3,434.993Z" fill="#fff"/>
      <path d="M400.342,445.483c2.8-1.56,7.26-.23,7.37,3.35-.19,3.2-3.96,3.54-6.24,4.71-1.88.66-4.56,2.88-2.87,4.97.93,1.7,3.04.68,4.45.32,4-1.1,8.42-3.18,12.49-1.19,5.01,2.7,7.98,9.56,4.98,14.77-2.89,5.2-8.7,8.57-14.53,9.18-3.42.41-6.1-4.48-3.15-6.74,3.17-1.95,7.64-1.85,10.02-5.1,1.58-1.84-.51-5.11-2.81-4.52-4.54.73-8.95,3.54-13.65,2.26-5.13-2.02-8.03-8.71-5.57-13.76C392.672,449.823,396.372,447.023,400.342,445.483Z" fill="#fff"/>
      <path d="M148.482,448.283c2.11-2.77,6.56-.33,6.8,2.7-.74,2.66-2.68,4.75-4.19,7.01-4.41,5.96-8.3,12.32-12.95,18.1-2.4,3.21-8.09-.58-6.34-4,2.34-4.3,5.54-8.05,8.23-12.12C142.912,456.123,145.312,451.9,148.482,448.283Z" fill="#fff"/>
      <path d="M154.512,468.883c-1.47-6.46,5.1-13.08,11.58-11.92a16.794,16.794,0,0,1,11.57,7.3c1.84,2.48-.63,6.37-3.6,6.02-3.09-1.27-4.71-4.8-8.05-5.64-1.56-.4-2.75,1.13-3.28,2.39,2.35,3.99,6.62,6.62,8.31,11.04,1.59,4.03-.69,8.46-3.66,11.2-2.99,2.86-7.59,3.01-11.31,1.66-4.99-1.9-9.67-5.57-11.27-10.85,1.2-1.43,2.29-3.18,4.21-3.72,4.22,1.06,5.75,6.3,10.08,7.31,1.87.63,3.55-1.12,3.91-2.83C161.122,476.213,155.982,473.743,154.512,468.883Z" fill="#fff"/>
      <path d="M371.852,462.123c2.84-1.21,5.9-2.52,9.06-1.99,2.3.4,4.25,3.38,2.79,5.5-2.49,3.18-7.92,1.43-10,5.17-.71,1.29.28,2.51,1.27,3.28,4.85,0,9.83-2.49,14.57-.53,5.67,2.7,8.13,10.96,4.18,16.06a18.722,18.722,0,0,1-15.74,7.03c-3.68-.01-5.06-5.82-1.6-7.27,3.44-1.1,7.75-.71,10.29-3.74,1.5-1.53.28-4.27-1.73-4.52-4.33-.21-8.58,1.86-12.9.92-3.56-.83-5.49-4.28-6.72-7.42C364.442,469.343,367.662,464.893,371.852,462.123Z" fill="#fff"/>
      <path d="M183.922,471.873c.7-2,2.58-4.37,4.98-3.3a103.009,103.009,0,0,1,12.99,5.5c2.58,1.86.87,5.69-1.75,6.48-3.42-.63-6.5-2.34-9.7-3.62-.83,1.86-1.65,3.73-2.48,5.61,2.84,1.3,5.95,2.14,8.53,3.95,2.51,2.15-.25,6.98-3.41,5.97a63.29,63.29,0,0,1-7.73-3.16c-.87,1.96-1.73,3.93-2.6,5.9,3.04,1.27,6.26,2.21,9.07,3.97,3.43,2.12-.32,7.98-3.71,6.02q-5.835-2.19-11.51-4.75c-1.99-.72-3.5-3.09-2.32-5.09Q179.052,483.593,183.922,471.873Z" fill="#fff"/>
      <path d="M344.782,474.9c4.06-1.47,8.03-3.31,12.24-4.28,3.07.13,4.4,4.05,2.72,6.41-3.19,1.22-6.36,2.47-9.55,3.68.78,1.87,1.57,3.74,2.35,5.61,3.15-1.24,6.38-2.31,9.58-3.41,1.42,1.83,3.8,4.47,1.5,6.65-2.63,1.71-5.73,2.46-8.63,3.59q1.08,2.985,2.16,5.98c3.29-1.12,6.44-2.77,9.9-3.36,3.07.42,4.58,5.27,1.44,6.7A129.909,129.909,0,0,1,355,507.6c-2.55.54-4.01-2.17-4.67-4.18-2.82-7.88-5.94-15.66-8.69-23.56C340.562,477.533,342.742,475.533,344.782,474.9Z" fill="#fff"/>
      <path d="M321.792,481.543c4.06-1.06,8.1-2.26,12.25-2.94,3.43-.71,5.43,5.03,2.19,6.53-2.94,1.32-6.17,1.73-9.25,2.58.51,1.98,1.02,3.95,1.55,5.93a60.727,60.727,0,0,1,8.42-2.03c2.87.41,4.47,4.45,2.06,6.4-2.69,1.51-5.87,1.81-8.8,2.63.91,3.78,2.2,7.48,2.66,11.35a4.227,4.227,0,0,1-5.75,3.1c-2.01-1.19-2.22-3.67-2.81-5.69-1.89-7.88-4.05-15.7-5.84-23.61C317.912,483.673,319.852,481.9,321.792,481.543Z" fill="#fff"/>
      <path d="M223.612,484.283c.4-2.44,3.19-3.23,5.29-2.57,5.15,1.26,11.31,1.01,15.23,5.15,5.85,5.7,2.83,17.4-5.16,19.39-3.8.91-7.61-.43-11.34-1.1-.74,3.07-.71,6.43-2.25,9.24-2.27,3.08-8,.46-6.87-3.32,1.7-8.93,3.26-17.9,5.1-26.79m7.07,4.79c-.56,3.1-1.16,6.19-1.84,9.26a37.42,37.42,0,0,0,6.22.88,4.85,4.85,0,0,0,3.41-6.86C236.792,489.763,233.332,489.843,230.682,489.073Z" fill="#fff"/>
      <path d="M285.092,491.073c5.28-6.94,15.83-8.16,23.19-3.93,7.93,6.16,9.51,18.08,4.74,26.66-6.11,8.02-19.64,9.48-26.54,1.72-5.56-6.65-6.45-17.28-1.39-24.45m10.38,1.49c-6.43,2.76-6.29,11.83-3.13,17.04,2.56,4.7,9.99,4.98,12.99.61,2.97-4.44,2.32-10.73-.55-15.07C302.782,492.143,298.722,491.4,295.472,492.563Z" fill="#fff"/>
      <path d="M252.422,489.173c.63-2.77,3.67-3.46,6.13-3.08,3.17.16,6.34.36,9.52.52,3.55.92,7.11,3.16,8.31,6.8,1.03,3.64.71,8.09-2.16,10.84-1.48,1.62-3.67,2.19-5.65,2.93,2.49,2.94,5.23,5.71,7.34,8.95,1.68,2.47-1.19,5.88-3.92,5.42-1.74.16-2.86-1.43-3.83-2.6-2.93-4.01-5.72-8.12-8.6-12.17-.4,3.93,0,7.96-.96,11.81-1.45,3.06-5.71,2.5-7.39-.04-.01-9.81.92-19.58,1.21-29.38m7.67,4.37q-.21,3.795-.31,7.6c2.06.05,4.12.22,6.18.08,2.53-.23,4.15-3.76,2.47-5.77C266.552,492.843,262.8,493.993,260.092,493.543Z" fill="#fff"/>
    </g>
    <g>
      <path d="M222.572,37.073a4.718,4.718,0,0,1,1.39-4.6l.21,1.94c.68,6.77,2.48,13.36,3.59,20.07-.36.46-1.07,1.38-1.42,1.84C224.652,50,223.882,43.483,222.572,37.073Z" fill="#571d7f"/>
      <path d="M307.4,485.583c5.3,1.32,7.81,7,9.43,11.7,1.07,6.15,1.56,14.34-4.36,18.27l.55-1.75c4.77-8.58,3.19-20.5-4.74-26.66Z" fill="#571d7f"/>
    </g>
    <path d="M281.592,36.353c.46-.25,1.37-.75,1.83-1,1.44,0,2.89.01,4.34.03-.22,2.68-.4,5.37-.66,8.05-1.24,4.53-.68,9.27-1.64,13.85-1.35-6.63.27-13.31.42-19.96C284.442,37.013,283.022,36.683,281.592,36.353Z" fill="#480974"/>
    <path d="M248.682,47.573l1.84.02c3.54,1.02,7.46,1.25,10.62,3.27,1.53,1.21.77,2.99.03,4.4a27.272,27.272,0,0,1-8.81-.91c2.63-.37,5.27-.62,7.92-.9C257.7,49.453,251.4,51.643,248.682,47.573Z" fill="#571e7f"/>
    <path d="M340.282,58.383c1.62-3.71,2.04-8.14,5.12-11.04l.03,1.99c-2.3,7.28-5.84,14.16-7.41,21.66l-.75,1.58C335.632,67.563,338.752,62.963,340.282,58.383Z" fill="#551a7e"/>
    <path d="M354.4,48.5c2.84,1.27,7.18,1.69,7.81,5.42a4.895,4.895,0,0,1-3.33,3.92c-2.58-.08-4.88-1.41-7.19-2.4.97-2.29,1.86-4.61,2.71-6.94m-.51,6.19c1.94.5,3.89.97,5.86,1.39-.03-1.3-.05-2.61-.07-3.91a35.937,35.937,0,0,0-3.53-.93C354.742,51.713,354.622,53.583,353.892,54.693Z" fill="#581f80"/>
    <path d="M170.162,165.713c-1.29-1.8.92-3.24,1.93-4.44a21.933,21.933,0,0,1,4.12,3.63c5.29,6.73,10.2,13.75,15.48,20.49a9.14,9.14,0,0,0,7.78,3.58c-1.97-2.35-4.79-4.59-4.67-7.96-.13-4.76,4.43-9.05,9.2-8.32a8.242,8.242,0,0,1,7.17,9.35c-.34,3.04-2.9,4.98-4.78,7.11a9.928,9.928,0,0,0,7.89-3.91c5.42-6.93,10.47-14.15,15.95-21.04,1.1-1.44,3.36-3.43,4.99-1.52,1.64,1,.6,3.12-.22,4.32-6.38,9.83-12.66,19.79-17.68,30.4-2.55,5.79-5.43,12.06-3.95,18.54,4.09,21.52,9.77,42.69,14.64,64.04.54,1.92.49,5.1-2.01,5.5a3.546,3.546,0,0,1-4.49-2.86c-4.95-16.55-9.62-33.21-15.53-49.46-.84-1.71-1.35-4.63-3.85-4.19-2.05,2.7-2.88,6.05-4.04,9.18-4.95,14.63-9.38,29.42-13.64,44.26-.34,2.36-3.2,4.31-5.31,2.75-2.47-1.14-1.3-4.2-1.06-6.25,4.75-20.55,10.14-40.97,14.18-61.69a20.981,20.981,0,0,0-.63-12.08C186.612,190.943,178.022,178.423,170.162,165.713Z" fill="#a977b3"/>
    <path d="M312.032,164.1c.99-.89,2-1.77,3.01-2.65a16.721,16.721,0,0,1,5.69,6.32c-2.27-1.28-4.54-2.56-6.74-3.93,1.77,4,5.48,7.37,5.48,11.99A121.454,121.454,0,0,1,312.032,164.1Z" fill="#e72d87"/>
    <path d="M372.622,164.563a10.3,10.3,0,0,1,4.45-3.17c.8,1.42,2.54,2.96,1.14,4.63-7.87,12.78-16.54,25.35-21.49,39.64-2.08,5.35-.53,11.05.51,16.44,4.01,19.08,8.85,37.97,13.26,56.95.19,1.88,1.24,4.39-.57,5.8-1.89,1.93-5.31.38-5.64-2.14-4.92-16.28-9.49-32.68-15.26-48.68-.84-1.83-1.29-4.1-3.11-5.23-1.65.18-2.28,1.71-2.82,3.05-6.64,17.49-11.21,35.69-17.07,53.44-1.76.07-3.51.05-5.26-.04-1.08-4.95.96-9.73,1.98-14.49,4.14-17.85,8.78-35.59,12.22-53.59a21.694,21.694,0,0,0-.46-11.69c-3.64-10.42-9.39-19.9-15-29.35l-.03-.3c0-4.62-3.71-7.99-5.48-11.99,2.2,1.37,4.47,2.65,6.74,3.93,3.52,3.37,5.96,7.73,9.03,11.51,3.19,4.13,6.21,10.08,12.31,9.77-2.78-2.9-6-6.76-4.03-11.02,1.94-6.19,11.3-7.32,14.56-1.67,3.08,4.42.24,9.7-3.37,12.74a9.89,9.89,0,0,0,7.95-4.05C362.352,178.243,367.332,171.283,372.622,164.563Z" fill="#e9398f"/>
    <g>
      <path d="M163.5,306.343c3.14-2.69,7.61-1.72,11.4-1.89,9.9.44,20.4-1.48,29.68,2.95,6.25,2.73,10.47,8.97,11.53,15.61,1.14,6.29.79,13.42-3.32,18.63-3.95,5.25-10.35,7.87-16.64,8.97,6.47,6.62,12.75,13.42,19.02,20.22,4.89,4.64.25,13.67-6.19,13.36-3.2.17-6.01-1.74-7.83-4.23-7.46-9.45-15.53-18.42-22.78-28.03-.23.04-.7.13-.93.18l-1.17.24c-.46,5.52-.35,11.07-.34,16.61a16.98,16.98,0,0,0,1.63,7.02c.39,5.85-6.1,9.78-11.32,7.76a7.8,7.8,0,0,1-5.36-7.73c-.13-20.35.03-40.7-.08-61.04-.04-3.04.13-6.56,2.7-8.63m14.09,13.49c-.03,6.52-.02,13.04-.01,19.56,5.5-.25,11.31.89,16.57-1.16,7.01-3.14,6.73-15.04-.63-17.6C188.362,319.1,182.882,320.093,177.592,319.833Z" fill="#9d9d9d"/>
      <path d="M280.842,305.063l.39-.08c1.62,1.7,3.64,3.4,3.88,5.91.73,4.26-2.59,8.88-7.06,8.86-9.94.27-19.9-.06-29.84.14.03,5.32.01,10.65.03,15.98,9.61.17,19.23-.16,28.84.12a7.354,7.354,0,0,1,6.85,8.07c-.06,3.67-3.16,7.19-6.93,7.2-9.6.33-19.22-.03-28.82.15.08,5.59.05,11.17.05,16.76,9.27-.04,18.53.03,27.79-.05,2.43.08,5.18-.16,7.21,1.45,3.75,2.76,3.83,8.93.37,11.96-1.98,2.04-4.99,2-7.61,2.05q-16.5-.06-32.98-.01c-3.32-.02-7.2.04-9.56-2.71-.97-21.26-.17-42.55-.5-63.83.01-3.75.11-9.14,4.36-10.61,6.19-.96,12.48-.12,18.71-.36C264.292,305.753,272.682,306.883,280.842,305.063Z" fill="#9d9d9d"/>
      <path d="M302.542,306.493c3.1-2.89,7.65-1.87,11.48-2.04,10.85.3,22.96-1.71,32.28,5.26,13.76,9.4,14.11,32.44.48,42.1-8.49,6.63-19.75,5.61-29.86,5.54-.4,6.85.34,13.73-.39,20.55-.87,6.19-9.33,8.26-13.72,4.4-2.28-1.72-2.78-4.71-2.73-7.38.05-20.66.01-41.33.02-61.99a7.93,7.93,0,0,1,2.44-6.44m14.19,12.97c.22,7.72-.04,15.45.17,23.17,6.04-.61,13.05,1.61,18.23-2.5,7.02-5.19,5.03-18.17-3.62-20.45C326.632,318.9,321.652,319.343,316.732,319.463Z" fill="#9d9d9d"/>
      <path d="M373.262,335.333a25.635,25.635,0,0,1,16.66,1.61c2.77,1.32,5.49,3.73,5.69,7.01a6.426,6.426,0,0,1-4.59,6.01c-4.88-.23-8.87-4.66-13.92-3.65-1.77.34-3.81,2.41-2.69,4.24,1.16,1.92,3.44,2.66,5.39,3.51,5.23,2.03,11.1,3.77,14.64,8.44,4.22,5.7,2.16,14.39-3.4,18.45-6.23,4.64-14.9,4.82-22,2.22-3.68-1.3-7.67-3.42-9.04-7.32-.57-3.74,3.1-7.96,7.05-6.83,4.7,1.22,8.7,5.28,13.88,4.31,2.55-.2,4.71-3.7,2.16-5.42-5.25-3.83-12.33-4.34-17.24-8.8-5.69-4.57-5.46-13.8-.7-18.94A17.358,17.358,0,0,1,373.262,335.333Z" fill="#9d9d9d"/>
    </g>
    <path d="M231.532,313.073c-.13-4.14,3.08-8.52,7.45-8.5,11.36-.15,22.72.06,34.08-.08a39.046,39.046,0,0,1,7.78.57c-8.16,1.82-16.55.69-24.82,1-6.23.24-12.52-.6-18.71.36-4.25,1.47-4.35,6.86-4.36,10.61.33,21.28-.47,42.57.5,63.83-2.51-3.09-1.97-7.12-1.97-10.81C231.562,351.063,231.432,332.063,231.532,313.073Z" fill="#90908e"/>
    <path d="M61.482,346.243c1.92-.66,3.83-1.33,5.75-2.01.81,2.37,1.62,4.74,2.38,7.14-.27.48-.8,1.44-1.06,1.92q-1.11-2.97-2.11-5.95c-.54-.07-1.62-.19-2.16-.26.13,2.17,1.19,4.6-.27,6.55C63.2,351.153,62.322,348.713,61.482,346.243Z" fill="#592081"/>
    <path d="M176.272,352.353l1.17-.24c.12,7.95-.05,15.91.12,23.87a16.98,16.98,0,0,1-1.63-7.02C175.922,363.423,175.812,357.873,176.272,352.353Z" fill="#8c8c8a"/>
    <path d="M481.522,358.2a5.486,5.486,0,0,1,4.5-1.49,134.048,134.048,0,0,1,17.43,1.67l-1.79,1.15C494.952,359.013,488.242,358.523,481.522,358.2Z" fill="#490a75"/>
    <path d="M444.082,400.233c1.09-3.9,5.39-4.92,8.9-5.34,2.85-.21,6.35-1.16,8.55,1.29-4.7.79-9.79.21-14.22,2.1-3.31,2.26-1.18,6.02,1.53,7.6l.85,1.72C446.622,406.693,442.612,403.943,444.082,400.233Z" fill="#541a7d"/>
    <path d="M460.642,403.833c6.06-.4,12.09-1.12,18.14-1.68.58.38,1.74,1.14,2.33,1.52-4.92.52-9.84,1.02-14.76,1.55l1,3C465.112,406.763,462.862,405.313,460.642,403.833Z" fill="#4c1077"/>
    <path d="M111.572,440.463c1.64-4.92,6.51-8.12,11.22-9.68.47.3,1.41.88,1.89,1.18-4.64,1.19-8.44,4.19-11.57,7.71Z" fill="#581e80"/>
    <path d="M364.152,476.663a12.946,12.946,0,0,1,8.52-16.14l-.82,1.6c-4.19,2.77-7.41,7.22-6.53,12.49C365.032,475.123,364.452,476.153,364.152,476.663Z" fill="#50147a"/>
    <path d="M350.192,480.713c3.19-1.21,6.36-2.46,9.55-3.68l1.68-.52c-1.76,2.92-5.22,3.69-8.15,4.93-.03.59-.1,1.77-.13,2.36,3.37-1.01,6.87-2.63,10.43-1.44l-1.45.55c-3.2,1.1-6.43,2.17-9.58,3.41C351.762,484.453,350.972,482.583,350.192,480.713Z" fill="#52177c"/>
    <path d="M258.552,486.093c3.43-1.71,7.34-1.24,10.99-.66l-1.47,1.18C264.892,486.453,261.722,486.253,258.552,486.093Z" fill="#480a74"/>
    <path d="M251.372,487.3c.26.47.79,1.41,1.05,1.87-.29,9.8-1.22,19.57-1.21,29.38l-.03,1.8c-.84-1.28-2.02-2.58-1.76-4.23C249.872,506.5,249.9,496.843,251.372,487.3Z" fill="#4b0e77"/>
    <path d="M230.682,489.073c2.65.77,6.11.69,7.79,3.28a4.85,4.85,0,0,1-3.41,6.86,37.42,37.42,0,0,1-6.22-.88c.68-3.07,1.28-6.16,1.84-9.26m1.75,1.78q-.675,3-1.34,6a12.822,12.822,0,0,0,5.94.03c-.33-1.33.01-2.93-.86-4.05A23.059,23.059,0,0,0,232.432,490.853Z" fill="#571f80"/>
  </g>
</svg>
